<?xml version="1.0" encoding="UTF-8"?>
<svg version="1.1" xmlns="http://www.w3.org/2000/svg" width="512" height="512">
<path d="M0 0 C6.2394997 4.14985593 9.74981559 11.71989002 12.25 18.5625 C13.25 23.5625 13.25 23.5625 13.25 35.5625 C21.17 35.5625 29.09 35.5625 37.25 35.5625 C37.58 31.9325 37.91 28.3025 38.25 24.5625 C40.6264825 13.89879648 45.45779689 6.01011561 54.25 -0.4375 C59.24772187 -2.10340729 64.43572291 -2.40691707 69.47265625 -0.671875 C77.05678724 3.47820824 80.66382858 10.99833104 83.125 19 C84.7334542 24.75900555 84.25 29.11475446 84.25 35.5625 C92.17 35.5625 100.09 35.5625 108.25 35.5625 C108.25 32.9225 108.25 30.2825 108.25 27.5625 C110.77625545 15.48163597 115.4496479 7.02634432 125.25 -0.4375 C129.20095987 -2.41297993 133.943666 -1.87057325 138.25 -1.4375 C146.58182738 2.57412059 150.00285104 9.42260876 153.24609375 17.66796875 C155.38476458 23.83433095 155.25 28.97524428 155.25 35.5625 C162.84 35.5625 170.43 35.5625 178.25 35.5625 C178.5903125 32.7471875 178.5903125 32.7471875 178.9375 29.875 C180.67610855 18.72602069 183.94591122 8.5712824 192.8359375 1.2578125 C197.64710324 -2.01739422 202.5854605 -2.31458999 208.25 -1.4375 C214.36961121 0.4899366 218.16350527 5.12777874 221.25 10.5625 C225.14016786 18.98116047 225.64988192 26.36521583 225.25 35.5625 C233.17 35.5625 241.09 35.5625 249.25 35.5625 C249.58 32.2625 249.91 28.9625 250.25 25.5625 C252.69874853 15.00148712 257.31129491 5.91891251 266.25 -0.4375 C271.24772187 -2.10340729 276.43572291 -2.40691707 281.47265625 -0.671875 C288.85600606 3.36833954 292.45531679 10.72646151 295.125 18.4375 C296.25 23.5625 296.25 23.5625 296.25 35.5625 C307.14 35.5625 318.03 35.5625 329.25 35.5625 C330.49692967 40.55021867 331.58279081 45.1206848 332.3203125 50.14453125 C332.49433594 51.32337891 332.66835938 52.50222656 332.84765625 53.71679688 C333.02167969 54.92400391 333.19570313 56.13121094 333.375 57.375 C333.55675781 58.60154297 333.73851562 59.82808594 333.92578125 61.09179688 C335.25 70.14726269 335.25 70.14726269 335.25 73.5625 C336.31992187 73.52769531 337.38984375 73.49289063 338.4921875 73.45703125 C348.42586208 73.24043316 358.18190101 73.75242448 368.0625 74.8125 C369.1767334 74.92182861 370.2909668 75.03115723 371.43896484 75.14379883 C377.27782005 75.82107046 381.79606357 76.40262378 386.25 80.5625 C392.57981177 91.34423043 391.57845144 106.07340126 391.51074219 118.27148438 C391.50000484 120.56146697 391.51072637 122.85066558 391.5234375 125.140625 C391.5536642 152.03375532 391.5536642 152.03375532 386.25 160.5625 C382.70813545 164.0998507 379.94602119 165.15658719 375.03125 165.828125 C373.85175781 165.99570313 372.67226563 166.16328125 371.45703125 166.3359375 C370.23371094 166.49320313 369.01039063 166.65046875 367.75 166.8125 C366.52667969 166.98523438 365.30335938 167.15796875 364.04296875 167.3359375 C359.0689238 168.02088795 354.2731151 168.60369479 349.25 168.5625 C349.42835892 169.51990585 349.60671783 170.47731171 349.79048157 171.46372986 C351.86828032 182.81448333 353.52174875 194.20550775 355.10060692 205.63498116 C356.02911808 212.31274694 356.99241409 218.98561229 357.94916821 225.65937901 C358.78356615 231.49348944 359.60560899 237.3288643 360.40258789 243.16821289 C361.18090597 248.86564595 361.99186963 254.55757996 362.82506752 260.24723625 C363.13465697 262.40203009 363.43246505 264.55855262 363.71791649 266.71667671 C364.9311262 279.82562715 364.9311262 279.82562715 371.37036133 290.79077148 C372.63905035 291.74807839 373.92870798 292.67921309 375.25 293.5625 C392.72291401 314.26118275 396.61141295 339.32896958 395.25 365.5625 C392.94835073 388.28971435 379.43662661 409.07561024 362.25 423.5625 C341.3407471 439.53731121 316.89206964 444.83079902 290.97509766 442.34423828 C268.05393995 439.08777418 246.44526051 425.66327638 232.31640625 407.52734375 C219.25 388.7798913 219.25 388.7798913 219.25 380.5625 C196.81 380.8925 174.37 381.2225 151.25 381.5625 C152.24 383.0475 152.24 383.0475 153.25 384.5625 C153.06676549 387.98287755 152.87838458 390.58850391 151 393.5 C149.25 394.5625 149.25 394.5625 144.25 394.5625 C144.25 405.1225 144.25 415.6825 144.25 426.5625 C145.9 426.5625 147.55 426.5625 149.25 426.5625 C151.625 428.625 151.625 428.625 153.25 431.5625 C153.19194894 434.92946151 152.99756644 437.35560588 151.20523071 440.2492075 C148.06683393 442.35721089 144.68317013 441.97773815 141.02880859 441.95018005 C140.1805441 441.95556559 139.33227961 441.96095113 138.45831013 441.96649987 C135.60487332 441.98085117 132.75189575 441.97365793 129.8984375 441.96655273 C127.85675176 441.97225286 125.81506921 441.97921572 123.77339172 441.98735046 C118.21717719 442.00534454 112.66112006 442.00410079 107.1048851 441.99840808 C102.46565197 441.99532272 97.82644937 442.00140198 93.18722057 442.00744683 C82.23595341 442.02151332 71.2847642 442.01991543 60.33349609 442.00854492 C49.04609468 441.99708411 37.75893143 442.01110031 26.47156143 442.0379414 C16.77797397 442.06012725 7.0844611 442.06672859 -2.60914993 442.06086498 C-8.39706364 442.05749839 -14.18482498 442.05988978 -19.97271729 442.07711601 C-25.42286433 442.09262697 -30.87266056 442.08858335 -36.32279396 442.06981087 C-38.31774645 442.06613531 -40.31272515 442.06920315 -42.30765343 442.07969666 C-67.23049201 442.20072635 -67.23049201 442.20072635 -76.95703125 432.71484375 C-83.5062003 424.85298723 -85.98925044 416.59613961 -85.328125 406.47265625 C-83.98015026 397.35561087 -79.79725386 390.61269287 -72.6796875 384.8671875 C-70.7655696 383.57302682 -68.84189742 382.5387188 -66.75 381.5625 C-67.61625 381.27375 -68.4825 380.985 -69.375 380.6875 C-74.23294123 377.62879627 -76.12343099 373.56145392 -78.75 368.5625 C-79.46929687 367.22445312 -79.46929687 367.22445312 -80.203125 365.859375 C-83.90532379 358.75285549 -84.95565074 353.48445671 -84.45332336 345.44018555 C-84.38160116 344.20281537 -84.38160116 344.20281537 -84.30843002 342.94044781 C-83.58624046 331.11740703 -82.52327725 319.31911399 -81.49682617 307.51953125 C-81.2664863 304.84497513 -81.03638102 302.17039963 -80.8065033 299.49580383 C-80.12174501 291.53881405 -79.43076122 283.58237006 -78.7387087 275.62601185 C-78.47741208 272.62109748 -78.21647522 269.61615192 -77.95553287 266.61120677 C-76.80270735 253.33639202 -75.6478223 240.06175789 -74.48748302 226.78759766 C-74.20509565 223.55680513 -73.92272336 220.32601129 -73.64038086 217.09521484 C-73.57022085 216.29240695 -73.50006084 215.48959907 -73.42777476 214.66246367 C-72.2888018 201.6257488 -71.16241959 188.58797755 -70.04114588 175.5497297 C-68.88620018 162.12240566 -67.71987286 148.69610803 -66.54247457 135.27073383 C-65.88309849 127.74888028 -65.22866806 120.22666924 -64.58705711 112.70327759 C-64.04149424 106.30646908 -63.48561445 99.91066204 -62.91641732 93.5159114 C-62.62677864 90.2583727 -62.34358769 87.0005039 -62.07037354 83.74154091 C-61.7726867 80.20016361 -61.45633636 76.66091932 -61.13542175 73.12158203 C-61.05437248 72.10435468 -60.97332321 71.08712732 -60.88981789 70.0390749 C-59.87046546 59.26653225 -56.97316079 49.93325997 -48.75 42.5625 C-43.93067614 38.75826995 -39.87875511 36.94554719 -33.75 36.5625 C-33.71132812 35.58023438 -33.71132812 35.58023438 -33.671875 34.578125 C-32.93876042 22.78164493 -29.63299833 11.51216175 -21.13671875 2.93359375 C-15.31812357 -2.13421496 -7.09554931 -3.48442154 0 0 Z M-15.75 12.5625 C-20.2133188 19.97986505 -22.75 26.8366722 -22.75 35.5625 C-11.86 35.5625 -0.97 35.5625 10.25 35.5625 C6.17310293 19.85097782 6.17310293 19.85097782 -4.75 8.5625 C-9.83051565 7.62934406 -12.28335343 8.82918831 -15.75 12.5625 Z M54.25 13.5625 C50.38547255 20.79118908 48.87819027 27.42154864 47.25 35.5625 C58.14 35.5625 69.03 35.5625 80.25 35.5625 C78.85564318 25.80200223 75.99880989 17.90520516 69.25 10.5625 C63.42448526 6.6788235 58.43281749 8.16204292 54.25 13.5625 Z M123.25 16.5625 C120.17906158 22.95412183 119.1404672 28.43876243 118.25 35.5625 C129.14 35.5625 140.03 35.5625 151.25 35.5625 C149.19514302 25.2882151 146.68956153 16.06445281 137.96875 9.54296875 C136.11419908 8.39676785 136.11419908 8.39676785 133.25 7.6875 C128.36121761 9.11339486 125.96570316 12.37688954 123.25 16.5625 Z M196.25 13.5625 C192.07898465 20.69903493 189.25 27.22076801 189.25 35.5625 C200.14 35.5625 211.03 35.5625 222.25 35.5625 C220.07207017 25.76181576 217.42719774 15.76892211 208.9765625 9.49609375 C203.22279685 6.38489468 199.90728229 8.87367655 196.25 13.5625 Z M267.25 12.5625 C262.52772435 19.86311013 261.24743568 26.90694539 259.25 35.5625 C270.47 35.5625 281.69 35.5625 293.25 35.5625 C289.05138399 19.99899353 289.05138399 19.99899353 278.25 8.5625 C273.1547304 7.7132884 270.72736097 8.81764972 267.25 12.5625 Z " fill="#D0D9FD" transform="translate(100.75,35.4375)"/>
<path d="M0 0 C0.33 0 0.66 0 1 0 C1.02514849 5.1005011 1.04306659 10.20096434 1.05493164 15.30151367 C1.05988984 17.0284081 1.06665843 18.75529851 1.07543945 20.48217773 C1.11997924 29.48183413 1.07368144 38.45410514 0.55859375 47.44140625 C0.51960464 48.13282211 0.48061554 48.82423798 0.44044495 49.53660583 C0.21117651 53.09939796 -0.20158764 56.51925738 -1 60 C-0.37810791 59.94465088 0.24378418 59.88930176 0.88452148 59.83227539 C26.21737343 57.6603715 51.58910125 57.37398077 77 57 C77.16081055 56.00895264 77.32162109 55.01790527 77.48730469 53.99682617 C82.87982541 20.84369984 82.87982541 20.84369984 85.25 9.375 C85.40049805 8.62629639 85.55099609 7.87759277 85.70605469 7.10620117 C86.75082997 2.24917003 86.75082997 2.24917003 89 0 C89.02521659 5.06388 89.04309671 10.1277214 89.05493164 15.19165039 C89.059879 16.90487303 89.06663845 18.61809165 89.07543945 20.33129883 C89.08793705 22.83155323 89.09332376 25.33175071 89.09765625 27.83203125 C89.10281754 28.56517044 89.10797882 29.29830963 89.11329651 30.05366516 C89.11419381 39.07468157 88.47630153 47.95027094 88 57 C113.74 57 139.48 57 166 57 C166.33 53.04 166.66 49.08 167 45 C167.53685305 41.17097456 168.10483057 37.37219356 168.75 33.5625 C169.00571777 32.03399414 169.00571777 32.03399414 169.26660156 30.47460938 C171.04234788 20.20132925 173.43278084 10.10053439 176 0 C176.33 0 176.66 0 177 0 C177.02507608 5.546058 177.04303422 11.09208163 177.05493164 16.63818359 C177.05990147 18.51742123 177.06667966 20.39665512 177.07543945 22.27587891 C177.12818376 33.89824102 176.91464589 45.40967327 176 57 C176.54763504 56.99476318 177.09527008 56.98952637 177.65950012 56.98413086 C192.03661844 56.86640396 206.33090214 57.26268571 220.6875 58 C224.48290949 58.19093982 228.27846502 58.37853035 232.07421875 58.5625 C232.95923065 58.60552246 233.84424255 58.64854492 234.756073 58.69287109 C240.84016031 58.97654864 246.90876079 59.12923802 253 59 C253.08451416 58.34966797 253.16902832 57.69933594 253.25610352 57.02929688 C255.81334323 37.75035544 259.62927383 18.93674236 264 0 C264.33 0 264.66 0 265 0 C265.1899373 29.88152066 265.1899373 29.88152066 264.5625 43.4375 C264.52326416 44.29811035 264.48402832 45.1587207 264.44360352 46.04541016 C264.18276627 51.07090779 263.68120812 56.01401455 263 61 C264.03898437 60.98839844 265.07796875 60.97679687 266.1484375 60.96484375 C273.83026349 60.9058662 281.36932205 60.97279335 289 62 C289 62.33 289 62.66 289 63 C276.13 63.99 276.13 63.99 263 65 C262.62875 70.8471875 262.62875 70.8471875 262.25 76.8125 C261.44697816 88.59968787 260.28324167 100.32594512 258.9375 112.0625 C258.84964233 112.83719635 258.76178467 113.6118927 258.67126465 114.4100647 C258.41936162 116.61896798 258.16212686 118.82716717 257.90234375 121.03515625 C257.67792603 122.94373413 257.67792603 122.94373413 257.44897461 124.89086914 C257 128 257 128 256 131 C263.46947887 131 268.64743335 128.40075334 275.11523438 125.01904297 C279.96476799 122.48800693 284.69037921 120.38429399 290 119 C291.10601562 118.65195312 292.21203125 118.30390625 293.3515625 117.9453125 C299.59198664 116.40181102 305.98819025 116.71113503 312.375 116.75 C314.26992188 116.73839844 314.26992188 116.73839844 316.203125 116.7265625 C326.43448443 116.74783352 335.40598295 118.05777352 344.9375 121.75 C345.62569824 122.01530518 346.31389648 122.28061035 347.02294922 122.55395508 C369.96812414 131.60928632 387.66956384 148.16225168 397.75 170.8125 C398.53337617 172.86255561 399.28228839 174.92604332 400 177 C400.39316406 178.10859375 400.78632813 179.2171875 401.19140625 180.359375 C408.18943049 203.47480002 405.1150624 228.78319798 394.19140625 250.0625 C383.15762118 270.45069565 364.4644802 286.05995457 342.41796875 293.15234375 C317.76369596 300.40663763 292.58790049 298.41855766 269.76831055 286.35302734 C250.29762727 275.58407011 236.08064746 258.72215116 228 238 C228 237.01 228 236.02 228 235 C205.56 235.33 183.12 235.66 160 236 C160.66 236.99 161.32 237.98 162 239 C161.81676549 242.42037755 161.62838458 245.02600391 159.75 247.9375 C158 249 158 249 153 249 C153 259.56 153 270.12 153 281 C154.65 281 156.3 281 158 281 C160.375 283.0625 160.375 283.0625 162 286 C161.94194894 289.36696151 161.74756644 291.79310588 159.95523071 294.6867075 C156.81683393 296.79471089 153.43317013 296.41523815 149.77880859 296.38768005 C148.9305441 296.39306559 148.08227961 296.39845113 147.20831013 296.40399987 C144.35487332 296.41835117 141.50189575 296.41115793 138.6484375 296.40405273 C136.60675176 296.40975286 134.56506921 296.41671572 132.52339172 296.42485046 C126.96717719 296.44284454 121.41112006 296.44160079 115.8548851 296.43590808 C111.21565197 296.43282272 106.57644937 296.43890198 101.93722057 296.44494683 C90.98595341 296.45901332 80.0347642 296.45741543 69.08349609 296.44604492 C57.79609468 296.43458411 46.50893143 296.44860031 35.22156143 296.4754414 C25.52797397 296.49762725 15.8344611 296.50422859 6.14085007 296.49836498 C0.35293636 296.49499839 -5.43482498 296.49738978 -11.22271729 296.51461601 C-16.67286433 296.53012697 -22.12266056 296.52608335 -27.57279396 296.50731087 C-29.56774645 296.50363531 -31.56272515 296.50670315 -33.55765343 296.51719666 C-58.48049201 296.63822635 -58.48049201 296.63822635 -68.20703125 287.15234375 C-74.7562003 279.29048723 -77.23925044 271.03363961 -76.578125 260.91015625 C-75.23015026 251.79311087 -71.04725386 245.05019287 -63.9296875 239.3046875 C-62.0155696 238.01052682 -60.09189742 236.9762188 -58 236 C-58.94875 235.566875 -59.8975 235.13375 -60.875 234.6875 C-64 233 -64 233 -66 230 C-65.85391999 226.56711978 -65.44922686 224.59155077 -63.35918903 221.83934784 C-60.22217781 219.39356892 -58.3329581 219.50291916 -54.37797546 219.50793457 C-53.71387769 219.50325558 -53.04977992 219.49857659 -52.36555797 219.49375582 C-50.1413405 219.48282708 -47.91825567 219.50031065 -45.6940918 219.51757812 C-44.09896511 219.51539215 -42.50384002 219.51139525 -40.90872192 219.50572205 C-37.47373909 219.49715446 -34.03906864 219.50094458 -30.60410118 219.5141449 C-25.17035563 219.53447208 -19.73692531 219.52450785 -14.30317688 219.5098877 C-1.78413943 219.48084159 10.73480572 219.49157825 23.25386047 219.50258636 C34.71986784 219.5122631 46.18571088 219.51352419 57.65169019 219.48270559 C63.05066677 219.46934032 68.44917106 219.47528068 73.84811938 219.49607086 C77.21147327 219.50506854 80.57464587 219.49757199 83.93798447 219.48565865 C85.49439675 219.48353115 87.05083609 219.48822983 88.60720253 219.5003643 C99.51629903 219.76524844 99.51629903 219.76524844 109 215 C112.6145329 210.49846516 112.50528674 206.46156114 112.34765625 200.8828125 C111.87242174 196.94210389 110.76466785 194.83742226 108 192 C103.56266204 189.34335517 100.30656327 188.62563854 95.16197205 188.62818909 C94.16727074 188.62245224 94.16727074 188.62245224 93.15247446 188.6165995 C90.94379809 188.60735827 88.73575584 188.61927748 86.52709961 188.63110352 C84.93828573 188.62863413 83.34947349 188.62479433 81.76066589 188.61968994 C78.34595746 188.61136542 74.93141587 188.61214792 71.51670647 188.61987495 C66.11698076 188.63147147 60.71746912 188.61928478 55.31776428 188.60325623 C41.90873494 188.56708837 28.4997109 188.56083406 15.09063721 188.56335449 C4.66360314 188.56506511 -5.76325582 188.55796859 -16.1902408 188.52337593 C-21.55797179 188.50657307 -26.92527576 188.50838362 -32.29300511 188.52419865 C-35.63114588 188.52999147 -38.96908367 188.51926338 -42.30718803 188.50395203 C-43.85475949 188.50022292 -45.40236493 188.50334223 -46.9499054 188.51382256 C-49.06343588 188.52718225 -51.17548482 188.5159961 -53.28895569 188.49879456 C-54.47119752 188.49900384 -55.65343935 188.49921312 -56.87150669 188.49942875 C-60.67079133 187.89291571 -62.34277454 186.74747695 -65 184 C-65.61164929 180.19418222 -65.70047772 178.05991478 -63.54980469 174.80566406 C-59.70852127 172.08542927 -56.2344529 172.50113212 -51.640625 172.609375 C-50.73624695 172.61503479 -49.8318689 172.62069458 -48.90008545 172.62652588 C-46.01618147 172.64888752 -43.13352739 172.69908314 -40.25 172.75 C-38.29298671 172.77006529 -36.33595392 172.78831601 -34.37890625 172.8046875 C-29.58545711 172.84875161 -24.79294035 172.91777748 -20 173 C-20.00523682 172.34628418 -20.01047363 171.69256836 -20.01586914 171.01904297 C-20.09966822 158.95409751 -20.09305871 147.02364585 -19 135 C-23.95 134.67 -28.9 134.34 -34 134 C-34 133.67 -34 133.34 -34 133 C-29.05 132.67 -24.1 132.34 -19 132 C-18.85900879 130.4730249 -18.71801758 128.9460498 -18.57275391 127.37280273 C-18.04275516 121.64156083 -17.50876048 115.91069674 -16.97363281 110.17993164 C-16.74372197 107.7119321 -16.51485715 105.24383486 -16.28710938 102.77563477 C-13.85871902 76.47339801 -13.85871902 76.47339801 -12 64 C-12.64501465 64.01023193 -13.2900293 64.02046387 -13.95458984 64.03100586 C-20.68445157 64.12334283 -27.30409943 63.64427909 -34 63 C-34 62.67 -34 62.34 -34 62 C-26.307359 61.15199233 -18.73708326 60.87847513 -11 61 C-10.90203125 60.02804688 -10.8040625 59.05609375 -10.703125 58.0546875 C-9.41266958 45.91512485 -7.31434655 33.981975 -5 22 C-4.81614746 21.04367676 -4.63229492 20.08735352 -4.44287109 19.10205078 C-3.90492575 16.31692022 -3.36067391 13.53313413 -2.8125 10.75 C-2.64572754 9.89817139 -2.47895508 9.04634277 -2.30712891 8.16870117 C-1.11926238 2.23852476 -1.11926238 2.23852476 0 0 Z " fill="#8C9CEA" transform="translate(92,181)"/>
<path d="M0 0 C6.2394997 4.14985593 9.74981559 11.71989002 12.25 18.5625 C13.25 23.5625 13.25 23.5625 13.25 35.5625 C21.17 35.5625 29.09 35.5625 37.25 35.5625 C37.58 31.9325 37.91 28.3025 38.25 24.5625 C40.6264825 13.89879648 45.45779689 6.01011561 54.25 -0.4375 C59.24772187 -2.10340729 64.43572291 -2.40691707 69.47265625 -0.671875 C77.05678724 3.47820824 80.66382858 10.99833104 83.125 19 C84.7334542 24.75900555 84.25 29.11475446 84.25 35.5625 C92.17 35.5625 100.09 35.5625 108.25 35.5625 C108.25 32.9225 108.25 30.2825 108.25 27.5625 C110.77625545 15.48163597 115.4496479 7.02634432 125.25 -0.4375 C129.20095987 -2.41297993 133.943666 -1.87057325 138.25 -1.4375 C146.58182738 2.57412059 150.00285104 9.42260876 153.24609375 17.66796875 C155.38476458 23.83433095 155.25 28.97524428 155.25 35.5625 C162.84 35.5625 170.43 35.5625 178.25 35.5625 C178.5903125 32.7471875 178.5903125 32.7471875 178.9375 29.875 C180.67610855 18.72602069 183.94591122 8.5712824 192.8359375 1.2578125 C197.64710324 -2.01739422 202.5854605 -2.31458999 208.25 -1.4375 C214.36961121 0.4899366 218.16350527 5.12777874 221.25 10.5625 C225.14016786 18.98116047 225.64988192 26.36521583 225.25 35.5625 C233.17 35.5625 241.09 35.5625 249.25 35.5625 C249.58 32.2625 249.91 28.9625 250.25 25.5625 C252.69874853 15.00148712 257.31129491 5.91891251 266.25 -0.4375 C271.24772187 -2.10340729 276.43572291 -2.40691707 281.47265625 -0.671875 C288.85600606 3.36833954 292.45531679 10.72646151 295.125 18.4375 C296.25 23.5625 296.25 23.5625 296.25 35.5625 C307.14 35.5625 318.03 35.5625 329.25 35.5625 C330.49692967 40.55021867 331.58279081 45.1206848 332.3203125 50.14453125 C332.49433594 51.32337891 332.66835938 52.50222656 332.84765625 53.71679688 C333.02167969 54.92400391 333.19570313 56.13121094 333.375 57.375 C333.55675781 58.60154297 333.73851562 59.82808594 333.92578125 61.09179688 C335.25 70.14726269 335.25 70.14726269 335.25 73.5625 C336.31992187 73.52769531 337.38984375 73.49289063 338.4921875 73.45703125 C348.42586208 73.24043316 358.18190101 73.75242448 368.0625 74.8125 C369.1767334 74.92182861 370.2909668 75.03115723 371.43896484 75.14379883 C377.27782005 75.82107046 381.79606357 76.40262378 386.25 80.5625 C392.57981177 91.34423043 391.57845144 106.07340126 391.51074219 118.27148438 C391.50000484 120.56146697 391.51072637 122.85066558 391.5234375 125.140625 C391.55641693 154.48289258 391.55641693 154.48289258 384.29296875 162.8046875 C379.62414509 165.50169732 374.85843969 165.97403947 369.5625 166.6875 C368.39799316 166.85870361 367.23348633 167.02990723 366.03369141 167.20629883 C359.08155516 168.15539437 352.22938797 168.71413826 345.22265625 168.94140625 C344.08685875 168.98385468 344.08685875 168.98385468 342.92811584 169.02716064 C339.20413743 169.16343194 335.48940866 169.25372526 331.76293945 169.26416016 C324.16609888 169.36067143 324.16609888 169.36067143 317.47363281 172.61572266 C315.1219413 175.00704336 315.1219413 175.00704336 313.24658203 177.54223633 C310.65140042 180.16819962 308.87786064 180.29714017 305.25 180.5625 C303.93 180.5625 302.61 180.5625 301.25 180.5625 C300.239375 180.789375 299.22875 181.01625 298.1875 181.25 C295.25 181.5625 295.25 181.5625 293.578125 180.46875 C291.67532399 177.73767091 291.95643208 175.66310556 292.0625 172.375 C292.08957031 171.28832031 292.11664063 170.20164063 292.14453125 169.08203125 C292.19673828 167.83486328 292.19673828 167.83486328 292.25 166.5625 C291.05375 166.48 289.8575 166.3975 288.625 166.3125 C283.32693474 165.63734832 279.8614789 163.50738833 276.4375 159.375 C273.22959192 151.77732296 274.12676512 142.59642709 274.1875 134.5 C274.19201172 133.34822266 274.19652344 132.19644531 274.20117188 131.00976562 C274.21285574 128.19395482 274.22923719 125.37825602 274.25 122.5625 C278.86155726 127.15048883 278.86155726 127.15048883 280.98828125 129.40625 C284.59093841 133.19663867 288.13658362 135.93781261 292.74609375 138.421875 C293.24238281 138.79828125 293.73867188 139.1746875 294.25 139.5625 C294.25 140.5525 294.25 141.5425 294.25 142.5625 C295.36375 142.645 296.4775 142.7275 297.625 142.8125 C302.05270999 143.35322919 305.78479536 144.85724622 309.875 146.578125 C328.00692681 154.09333151 353.99967029 153.19458268 372.25 146.5625 C374.58092845 145.88747301 376.91402427 145.21984791 379.25 144.5625 C379.30006956 138.85572536 379.33603072 133.14908331 379.35986328 127.44213867 C379.36981638 125.50754565 379.38338371 123.57296725 379.40087891 121.63842773 C380.26481155 100.90714171 380.26481155 100.90714171 374.25 81.5625 C368.80753174 77.5008227 361.73873358 77.50555839 355.1875 76.875 C353.2698584 76.68719971 353.2698584 76.68719971 351.31347656 76.49560547 C332.9869312 74.79994099 314.67765896 74.7839869 296.375 76.8125 C295.3530957 76.92158691 294.33119141 77.03067383 293.27832031 77.14306641 C287.37210167 77.90300651 283.09219687 79.02446815 278.25 82.5625 C274.82601869 88.81713707 274.82601869 88.81713707 274.25 106.5625 C163.04 106.5625 51.83 106.5625 -62.75 106.5625 C-62.75 97.87629322 -62.42443958 89.43700965 -61.68798828 80.81054688 C-61.50040068 78.56729148 -61.33413281 76.32305533 -61.16796875 74.078125 C-60.18251218 61.85370662 -58.24992567 51.07767728 -48.75 42.5625 C-43.93067614 38.75826995 -39.87875511 36.94554719 -33.75 36.5625 C-33.72421875 35.90765625 -33.6984375 35.2528125 -33.671875 34.578125 C-32.93876042 22.78164493 -29.63299833 11.51216175 -21.13671875 2.93359375 C-15.31812357 -2.13421496 -7.09554931 -3.48442154 0 0 Z M-15.75 12.5625 C-20.2133188 19.97986505 -22.75 26.8366722 -22.75 35.5625 C-11.86 35.5625 -0.97 35.5625 10.25 35.5625 C6.17310293 19.85097782 6.17310293 19.85097782 -4.75 8.5625 C-9.83051565 7.62934406 -12.28335343 8.82918831 -15.75 12.5625 Z M54.25 13.5625 C50.38547255 20.79118908 48.87819027 27.42154864 47.25 35.5625 C58.14 35.5625 69.03 35.5625 80.25 35.5625 C78.85564318 25.80200223 75.99880989 17.90520516 69.25 10.5625 C63.42448526 6.6788235 58.43281749 8.16204292 54.25 13.5625 Z M123.25 16.5625 C120.17906158 22.95412183 119.1404672 28.43876243 118.25 35.5625 C129.14 35.5625 140.03 35.5625 151.25 35.5625 C149.19514302 25.2882151 146.68956153 16.06445281 137.96875 9.54296875 C136.11419908 8.39676785 136.11419908 8.39676785 133.25 7.6875 C128.36121761 9.11339486 125.96570316 12.37688954 123.25 16.5625 Z M196.25 13.5625 C192.07898465 20.69903493 189.25 27.22076801 189.25 35.5625 C200.14 35.5625 211.03 35.5625 222.25 35.5625 C220.07207017 25.76181576 217.42719774 15.76892211 208.9765625 9.49609375 C203.22279685 6.38489468 199.90728229 8.87367655 196.25 13.5625 Z M267.25 12.5625 C262.52772435 19.86311013 261.24743568 26.90694539 259.25 35.5625 C270.47 35.5625 281.69 35.5625 293.25 35.5625 C289.05138399 19.99899353 289.05138399 19.99899353 278.25 8.5625 C273.1547304 7.7132884 270.72736097 8.81764972 267.25 12.5625 Z " fill="#4269C3" transform="translate(100.75,35.4375)"/>
<path d="M0 0 C0.84236295 -0.0055344 1.68472589 -0.01106879 2.55261499 -0.0167709 C5.38012724 -0.03040261 8.20676061 -0.01539437 11.03425598 -0.00050354 C13.05963008 -0.00428594 15.0850016 -0.00978533 17.11036682 -0.01687622 C22.61686653 -0.03086277 28.12305486 -0.01963652 33.62953734 -0.00316501 C39.39223849 0.01067218 45.1549213 0.00422657 50.91763306 0.0007019 C60.60125246 -0.00200235 70.28474807 0.01149025 79.96833801 0.03465271 C91.1552299 0.06122622 102.34191429 0.06302224 113.52882689 0.05126435 C124.29298054 0.04047153 135.05705933 0.04668789 145.82120705 0.06081963 C150.39954211 0.06657015 154.97782222 0.06650397 159.55615807 0.06175423 C164.95457143 0.05696984 170.35275874 0.0671468 175.75112915 0.08870888 C177.72917735 0.09425839 179.70724735 0.09475897 181.68529701 0.08975601 C184.39282246 0.08376867 187.09966482 0.09637438 189.80712891 0.11352539 C190.58361115 0.10751535 191.3600934 0.1015053 192.16010541 0.09531313 C201.06271394 0.19733065 209.02310986 2.96813082 215.50227356 9.21995544 C221.65876154 15.79383244 224.89013553 21.84462141 225.22102356 30.93870544 C224.91963231 39.54844884 222.32938971 46.62263959 216.43586731 52.96604919 C212.65795985 56.34809391 208.52640281 58.89941236 203.72102356 60.50120544 C204.34750793 60.68296326 204.97399231 60.86472107 205.61946106 61.05198669 C206.8453595 61.42903748 206.8453595 61.42903748 208.09602356 61.81370544 C208.90813293 62.05733826 209.72024231 62.30097107 210.55696106 62.55198669 C212.72102356 63.50120544 212.72102356 63.50120544 214.72102356 66.50120544 C214.53778905 69.92158299 214.34940814 72.52720935 212.47102356 75.43870544 C210.72102356 76.50120544 210.72102356 76.50120544 205.72102356 76.50120544 C205.72102356 87.06120544 205.72102356 97.62120544 205.72102356 108.50120544 C207.37102356 108.50120544 209.02102356 108.50120544 210.72102356 108.50120544 C213.09602356 110.56370544 213.09602356 110.56370544 214.72102356 113.50120544 C214.6629725 116.86816695 214.46859 119.29431132 212.67625427 122.18791294 C209.53785749 124.29591633 206.15419369 123.9164436 202.49983215 123.8888855 C201.65156766 123.89427104 200.80330317 123.89965657 199.92933369 123.90520531 C197.07589688 123.91955662 194.22291931 123.91236338 191.36946106 123.90525818 C189.32777532 123.9109583 187.28609277 123.91792116 185.24441528 123.92605591 C179.68820075 123.94404998 174.13214362 123.94280624 168.57590866 123.93711352 C163.93667553 123.93402816 159.29747293 123.94010743 154.65824413 123.94615227 C143.70697697 123.96021877 132.75578776 123.95862087 121.80451965 123.94725037 C110.51711824 123.93578956 99.22995499 123.94980575 87.94258499 123.97664684 C78.24899753 123.99883269 68.55548466 124.00543404 58.86187363 123.99957043 C53.07395992 123.99620384 47.28619858 123.99859522 41.49830627 124.01582146 C36.04815923 124.03133242 30.598363 124.02728879 25.1482296 124.00851631 C23.15327711 124.00484075 21.15829841 124.00790859 19.16337013 124.0184021 C-5.75946845 124.13943179 -5.75946845 124.13943179 -15.48600769 114.65354919 C-22.03517674 106.79169267 -24.51822688 98.53484505 -23.85710144 88.41136169 C-22.5091267 79.29431631 -18.3262303 72.55139832 -11.20866394 66.80589294 C-9.29454604 65.51173226 -7.37087386 64.47742424 -5.27897644 63.50120544 C-6.22772644 63.06808044 -7.17647644 62.63495544 -8.15397644 62.18870544 C-11.27897644 60.50120544 -11.27897644 60.50120544 -13.27897644 57.50120544 C-13.13289643 54.06832523 -12.7282033 52.09275622 -10.63816547 49.34055328 C-7.50115425 46.89477436 -5.61193454 47.00412461 -1.6569519 47.00914001 C-0.99285413 47.00446103 -0.32875636 46.99978204 0.35546559 46.99496126 C2.57968306 46.98403252 4.80276789 47.00151609 7.02693176 47.01878357 C8.62205845 47.0165976 10.21718354 47.01260069 11.81230164 47.00692749 C15.24728447 46.9983599 18.68195492 47.00215002 22.11692238 47.01535034 C27.55066793 47.03567753 32.98409825 47.02571329 38.41784668 47.01109314 C50.93688413 46.98204703 63.45582928 46.99278369 75.97488403 47.00379181 C87.44089139 47.01346854 98.90673444 47.01472963 110.37271374 46.98391104 C115.77169032 46.97054577 121.17019462 46.97648613 126.56914294 46.99727631 C129.93249683 47.00627398 133.29566943 46.99877744 136.65900803 46.98686409 C138.21542031 46.98473659 139.77185965 46.98943528 141.32822609 47.00156975 C152.23732259 47.26645388 152.23732259 47.26645388 161.72102356 42.50120544 C165.33555646 37.99967061 165.2263103 33.96276658 165.06867981 28.38401794 C164.5934453 24.44330933 163.48569141 22.33862771 160.72102356 19.50120544 C156.2836856 16.84456061 153.02758683 16.12684399 147.88299561 16.12939453 C147.2198614 16.12556997 146.5567272 16.1217454 145.87349802 16.11780494 C143.66482165 16.10856372 141.4567794 16.12048292 139.24812317 16.13230896 C137.65930929 16.12983958 136.07049705 16.12599977 134.48168945 16.12089539 C131.06698102 16.11257087 127.65243943 16.11335337 124.23773003 16.1210804 C118.83800432 16.13267691 113.43849268 16.12049022 108.03878784 16.10446167 C94.6297585 16.06829381 81.22073446 16.06203951 67.81166077 16.06455994 C57.3846267 16.06627055 46.95776773 16.05917403 36.53078276 16.02458137 C31.16305177 16.00777851 25.7957478 16.00958906 20.42801845 16.0254041 C17.08987768 16.03119692 13.75193989 16.02046882 10.41383553 16.00515747 C8.86626407 16.00142836 7.31865863 16.00454768 5.77111816 16.015028 C3.65758768 16.0283877 1.54553874 16.01720155 -0.56793213 16 C-1.75017396 16.00020928 -2.93241579 16.00041857 -4.15048313 16.00063419 C-7.94976777 15.39412116 -9.62175098 14.2486824 -12.27897644 11.50120544 C-12.89559332 7.66447822 -13.00608881 5.54916113 -10.76125622 2.31378078 C-7.28965727 -0.22120125 -4.13661118 -0.05044486 0 0 Z " fill="#F9AD40" transform="translate(39.27897644042969,353.49879455566406)"/>
<path d="M0 0 C0.2475 1.27875 0.495 2.5575 0.75 3.875 C1.51990586 7.26747318 1.51990586 7.26747318 4.125 9.5 C4.74375 9.665 5.3625 9.83 6 10 C7.88391785 6.73454239 8.49287967 3.71888239 9 0 C25.00084868 -0.58184904 39.47896707 6.38157016 52 16 C50.79618552 18.49361571 49.54571278 20.68143083 48 23 C47.60986284 24.9896995 47.26797351 26.99019869 47 29 C48.29585916 28.57507874 49.5866044 28.13454118 50.875 27.6875 C51.59429687 27.44386719 52.31359375 27.20023437 53.0546875 26.94921875 C55.33994905 26.03664453 55.33994905 26.03664453 57 23 C57.66 23 58.32 23 59 23 C68.65030358 34.05074342 76.06836182 49.47979684 76.1875 64.3125 C76.125625 65.199375 76.06375 66.08625 76 67 C74.9275 66.9175 73.855 66.835 72.75 66.75 C68.95990735 66.63762783 68.95990735 66.63762783 66.5625 69 C65.7890625 69.99 65.7890625 69.99 65 71 C68.44468978 74.16911459 71.44300168 74.45230942 76 75 C74.95231326 91.0787843 70.13975924 105.91272101 59 118 C58.34 118 57.68 118 57 118 C56.443125 117.38125 55.88625 116.7625 55.3125 116.125 C52.41246003 113.46009841 49.79228585 112.87514289 46 112 C46.97806895 115.50474706 47.87046341 117.84085504 50.1875 120.6875 C50.785625 121.450625 51.38375 122.21375 52 123 C50.67552114 126.97343658 48.19649671 128.22494933 44.8125 130.375 C44.18972168 130.77275635 43.56694336 131.1705127 42.92529297 131.58032227 C36.60650611 135.46947767 30.11840677 137.8875551 23 140 C22.19304687 140.24492187 21.38609375 140.48984375 20.5546875 140.7421875 C16.6428102 141.82799375 13.05079837 142.20253992 9 142 C8.34 138.7 7.68 135.4 7 132 C5.68 132 4.36 132 3 132 C1.41727399 133.58272601 1.65264253 135.38034003 1.4375 137.5625 C1.31181641 138.80193359 1.31181641 138.80193359 1.18359375 140.06640625 C1.12300781 140.70449219 1.06242187 141.34257812 1 142 C-13.85318238 142.45468926 -29.15938501 136.07618617 -40.4375 126.5 C-41.283125 125.675 -42.12875 124.85 -43 124 C-42.195625 123.13375 -41.39125 122.2675 -40.5625 121.375 C-38.03075864 118.37123907 -37.28342624 115.96796738 -37 112 C-42.02265357 113.18180084 -45.0949151 114.44992282 -49 118 C-59.24772611 105.99378834 -66.53536118 91.08142625 -66 75 C-65.06027344 74.83564453 -65.06027344 74.83564453 -64.1015625 74.66796875 C-63.28429687 74.50941406 -62.46703125 74.35085938 -61.625 74.1875 C-60.81289063 74.03667969 -60.00078125 73.88585937 -59.1640625 73.73046875 C-56.64179359 73.12455058 -56.64179359 73.12455058 -55 70 C-58.66291938 67.52214277 -61.6109185 66.51035831 -66 66 C-66.92879207 49.90093741 -59.37071057 34.91528448 -49 23 C-48.55269531 23.34933594 -48.10539062 23.69867188 -47.64453125 24.05859375 C-44.14976044 26.68898628 -41.48721443 28.59207142 -37 29 C-37.2475 27.7625 -37.495 26.525 -37.75 25.25 C-37.88921875 24.55390625 -38.0284375 23.8578125 -38.171875 23.140625 C-39.22833955 20.40976381 -40.8476151 18.94239613 -43 17 C-30.02225112 6.47750091 -17.03356625 -0.54074813 0 0 Z " fill="#FEFDFD" transform="translate(401,317)"/>
<path d="M0 0 C1.26328125 -0.00773437 2.5265625 -0.01546875 3.828125 -0.0234375 C14.05948443 -0.00216648 23.03098295 1.30777352 32.5625 5 C33.59479736 5.39795776 33.59479736 5.39795776 34.64794922 5.80395508 C57.59312414 14.85928632 75.29456384 31.41225168 85.375 54.0625 C86.15837617 56.11255561 86.90728839 58.17604332 87.625 60.25 C88.01816406 61.35859375 88.41132813 62.4671875 88.81640625 63.609375 C95.81443049 86.72480002 92.7400624 112.03319798 81.81640625 133.3125 C70.78262118 153.70069565 52.0894802 169.30995457 30.04296875 176.40234375 C5.38869596 183.65663763 -19.78709951 181.66855766 -42.60668945 169.60302734 C-62.0031819 158.87510401 -78.64278319 140.76990041 -84.98339844 119.17822266 C-91.48038386 93.47941384 -90.29306448 66.54102466 -76.5625 43.4375 C-63.53945276 23.50978054 -45.69361727 8.43199606 -22.375 2.25 C-21.23804688 1.89292969 -20.10109375 1.53585937 -18.9296875 1.16796875 C-12.72713933 -0.36071496 -6.34614562 -0.03861752 0 0 Z M-46.375 36.25 C-45.1684375 37.549375 -45.1684375 37.549375 -43.9375 38.875 C-41.40575864 41.87876093 -40.65842624 44.28203262 -40.375 48.25 C-45.39765357 47.06819916 -48.4699151 45.80007718 -52.375 42.25 C-62.74571057 54.16528448 -70.30379207 69.15093741 -69.375 85.25 C-68.116875 85.518125 -66.85875 85.78625 -65.5625 86.0625 C-62.38051199 86.84532537 -60.37255689 87.50335928 -58.375 90.25 C-62.03791938 92.72785723 -64.9859185 93.73964169 -69.375 94.25 C-69.91036118 110.33142625 -62.62272611 125.24378834 -52.375 137.25 C-51.92769531 136.90066406 -51.48039062 136.55132812 -51.01953125 136.19140625 C-47.52476044 133.56101372 -44.86221443 131.65792858 -40.375 131.25 C-41.4735046 136.74252298 -42.12144042 139.41142184 -46.375 143.25 C-35.38045041 153.20976845 -20.32515749 161.31589874 -5.125 161.4375 C-4.2175 161.375625 -3.31 161.31375 -2.375 161.25 C-2.34921875 160.62351562 -2.3234375 159.99703125 -2.296875 159.3515625 C-2.21179688 158.12566406 -2.21179688 158.12566406 -2.125 156.875 C-2.07859375 156.06289063 -2.0321875 155.25078125 -1.984375 154.4140625 C-1.375 152.25 -1.375 152.25 0.671875 150.9609375 C1.31640625 150.72632813 1.9609375 150.49171875 2.625 150.25 C5.19116632 154.09924948 5.17597676 156.6849304 5.625 161.25 C21.71160644 159.90944946 36.1884675 154.79401669 48.625 144.25 C47.56932975 142.05182948 46.60014203 140.21917611 45.0625 138.3125 C43.41871058 135.95401953 43.01701607 134.07251571 42.625 131.25 C44.08724799 131.67423244 45.54473412 132.11490245 47 132.5625 C47.81210937 132.80613281 48.62421875 133.04976563 49.4609375 133.30078125 C51.625 134.25 51.625 134.25 53.625 137.25 C59.47980998 135.29839667 62.77787436 127.51899072 65.625 122.25 C70.00929483 113.19694148 72.58659409 104.38916088 72.625 94.25 C71.68527344 94.08564453 71.68527344 94.08564453 70.7265625 93.91796875 C69.50066406 93.68013672 69.50066406 93.68013672 68.25 93.4375 C67.03183594 93.21126953 67.03183594 93.21126953 65.7890625 92.98046875 C63.625 92.25 63.625 92.25 61.625 89.25 C64.33682212 86.64665076 65.51633813 86.25543309 69.375 86.0625 C70.4475 86.124375 71.52 86.18625 72.625 86.25 C72.32427155 69.79195193 66.27514811 54.82559862 55.625 42.25 C54.965 42.25 54.305 42.25 53.625 42.25 C53.0475 42.86875 52.47 43.4875 51.875 44.125 C49.26386247 46.59107433 47.05488945 47.31457561 43.625 48.25 C45.4083935 39.88176895 45.4083935 39.88176895 48.625 37.25 C48.625 36.59 48.625 35.93 48.625 35.25 C36.72652827 24.82876516 21.27480917 18.97544194 5.625 19.25 C4.965 22.22 4.305 25.19 3.625 28.25 C2.305 28.25 0.985 28.25 -0.375 28.25 C-2.50008244 25.06237635 -2.8770163 22.98487777 -3.375 19.25 C-19.57407992 18.45332394 -34.31964121 25.75737291 -46.375 36.25 Z " fill="#B53117" transform="translate(404.375,297.75)"/>
<path d="M0 0 C0.84236295 -0.0055344 1.68472589 -0.01106879 2.55261499 -0.0167709 C5.38012724 -0.03040261 8.20676061 -0.01539437 11.03425598 -0.00050354 C13.05963008 -0.00428594 15.0850016 -0.00978533 17.11036682 -0.01687622 C22.61686653 -0.03086277 28.12305486 -0.01963652 33.62953734 -0.00316501 C39.39223849 0.01067218 45.1549213 0.00422657 50.91763306 0.0007019 C60.60125246 -0.00200235 70.28474807 0.01149025 79.96833801 0.03465271 C91.1552299 0.06122622 102.34191429 0.06302224 113.52882689 0.05126435 C124.29298054 0.04047153 135.05705933 0.04668789 145.82120705 0.06081963 C150.39954211 0.06657015 154.97782222 0.06650397 159.55615807 0.06175423 C164.95457143 0.05696984 170.35275874 0.0671468 175.75112915 0.08870888 C177.72917735 0.09425839 179.70724735 0.09475897 181.68529701 0.08975601 C184.39282246 0.08376867 187.09966482 0.09637438 189.80712891 0.11352539 C190.58361115 0.10751535 191.3600934 0.1015053 192.16010541 0.09531313 C201.06271394 0.19733065 209.02310986 2.96813082 215.50227356 9.21995544 C221.65876154 15.79383244 224.89013553 21.84462141 225.22102356 30.93870544 C224.91989567 39.54092551 222.33801465 46.64971496 216.42024231 52.96995544 C208.87267481 59.77144156 200.93766038 61.79468347 191.0164032 61.81332397 C190.16457116 61.82264421 189.31273913 61.83196444 188.435094 61.8415671 C185.59404232 61.87017306 182.75309726 61.88483016 179.91194153 61.8993988 C177.86977986 61.91689051 175.82762481 61.93517026 173.78547668 61.95417786 C168.24858454 62.00280285 162.71168311 62.03854574 157.1746726 62.07058024 C153.71567188 62.09103464 150.25669711 62.11401324 146.79771805 62.13783455 C134.73199687 62.22055532 122.66626251 62.29193949 110.60041809 62.35398865 C99.34903592 62.41218511 88.09805231 62.49666198 76.84693801 62.59298795 C67.18657774 62.67442697 57.5262155 62.73660981 47.86562836 62.78395563 C42.09573552 62.81261725 36.32616257 62.84933607 30.55646896 62.90579033 C25.13426252 62.9582541 19.71245434 62.98683764 14.29000854 62.99692917 C12.29892799 63.0047417 10.30786007 63.02116603 8.31692886 63.04677391 C5.60134319 63.08037848 2.88742521 63.08309122 0.17167664 63.07797241 C-1.01329066 63.10360879 -1.01329066 63.10360879 -2.2221967 63.12976307 C-6.24643966 63.0872974 -8.08357224 62.65269801 -11.30323601 60.15656376 C-13.27897644 57.50120544 -13.27897644 57.50120544 -13.34147644 54.43870544 C-12.11838175 51.05720835 -11.09566602 49.71758165 -8.27897644 47.50120544 C-5.2607069 47.00457001 -5.2607069 47.00457001 -1.6569519 47.00914001 C-0.66080524 47.00212153 -0.66080524 47.00212153 0.35546559 46.99496126 C2.57968306 46.98403252 4.80276789 47.00151609 7.02693176 47.01878357 C8.62205845 47.0165976 10.21718354 47.01260069 11.81230164 47.00692749 C15.24728447 46.9983599 18.68195492 47.00215002 22.11692238 47.01535034 C27.55066793 47.03567753 32.98409825 47.02571329 38.41784668 47.01109314 C50.93688413 46.98204703 63.45582928 46.99278369 75.97488403 47.00379181 C87.44089139 47.01346854 98.90673444 47.01472963 110.37271374 46.98391104 C115.77169032 46.97054577 121.17019462 46.97648613 126.56914294 46.99727631 C129.93249683 47.00627398 133.29566943 46.99877744 136.65900803 46.98686409 C138.21542031 46.98473659 139.77185965 46.98943528 141.32822609 47.00156975 C152.23732259 47.26645388 152.23732259 47.26645388 161.72102356 42.50120544 C165.33555646 37.99967061 165.2263103 33.96276658 165.06867981 28.38401794 C164.5934453 24.44330933 163.48569141 22.33862771 160.72102356 19.50120544 C156.2836856 16.84456061 153.02758683 16.12684399 147.88299561 16.12939453 C147.2198614 16.12556997 146.5567272 16.1217454 145.87349802 16.11780494 C143.66482165 16.10856372 141.4567794 16.12048292 139.24812317 16.13230896 C137.65930929 16.12983958 136.07049705 16.12599977 134.48168945 16.12089539 C131.06698102 16.11257087 127.65243943 16.11335337 124.23773003 16.1210804 C118.83800432 16.13267691 113.43849268 16.12049022 108.03878784 16.10446167 C94.6297585 16.06829381 81.22073446 16.06203951 67.81166077 16.06455994 C57.3846267 16.06627055 46.95776773 16.05917403 36.53078276 16.02458137 C31.16305177 16.00777851 25.7957478 16.00958906 20.42801845 16.0254041 C17.08987768 16.03119692 13.75193989 16.02046882 10.41383553 16.00515747 C8.86626407 16.00142836 7.31865863 16.00454768 5.77111816 16.015028 C3.65758768 16.0283877 1.54553874 16.01720155 -0.56793213 16 C-1.75017396 16.00020928 -2.93241579 16.00041857 -4.15048313 16.00063419 C-7.94976777 15.39412116 -9.62175098 14.2486824 -12.27897644 11.50120544 C-12.89559332 7.66447822 -13.00608881 5.54916113 -10.76125622 2.31378078 C-7.28965727 -0.22120125 -4.13661118 -0.05044486 0 0 Z " fill="#AEC36F" transform="translate(39.27897644042969,353.49879455566406)"/>
<path d="M0 0 C1.22041992 0.11746582 2.44083984 0.23493164 3.69824219 0.35595703 C16.10412755 1.72912755 16.10412755 1.72912755 20.8125 6.4375 C26.67821073 16.99577932 25.2236715 30.87274115 25.19287109 42.56860352 C25.18747218 45.01259452 25.19286629 47.4564049 25.19921875 49.90039062 C25.19855853 51.47135457 25.19727852 53.0423184 25.1953125 54.61328125 C25.19733673 55.33526199 25.19936096 56.05724274 25.20144653 56.80110168 C25.18277208 60.85802283 25.05869617 64.7438835 24.0625 68.6875 C21.4375 70.296875 21.4375 70.296875 18.0625 71.4375 C16.4228125 72.01757812 16.4228125 72.01757812 14.75 72.609375 C13.533125 72.96515625 12.31625 73.3209375 11.0625 73.6875 C10.42376953 73.87803955 9.78503906 74.0685791 9.12695312 74.26489258 C2.0012765 76.14011433 -5.11427165 75.94577382 -12.4375 75.875 C-13.70464844 75.87435547 -14.97179687 75.87371094 -16.27734375 75.87304688 C-25.83967271 75.8282701 -34.3088357 75.53298893 -43.375 72.3125 C-49.18936038 70.28433718 -55.02202714 68.39950744 -60.9375 66.6875 C-60.9375 65.6975 -60.9375 64.7075 -60.9375 63.6875 C-62.0203125 63.32398438 -62.0203125 63.32398438 -63.125 62.953125 C-66.30981554 61.519958 -68.36968847 59.79667685 -70.9375 57.4375 C-72.175 56.31601563 -72.175 56.31601563 -73.4375 55.171875 C-74.2625 54.35203125 -75.0875 53.5321875 -75.9375 52.6875 C-76.85789062 51.83929688 -77.77828125 50.99109375 -78.7265625 50.1171875 C-82.28157376 45.73536469 -81.50888529 40.42183806 -81.3125 35.0625 C-81.28961914 33.98887207 -81.26673828 32.91524414 -81.24316406 31.80908203 C-81.16832341 28.76694824 -81.05730207 25.72814003 -80.9375 22.6875 C-80.90336749 21.34375704 -80.86946013 20.00000831 -80.8359375 18.65625 C-80.56331093 12.97413837 -80.01374302 8.98408048 -75.9375 4.6875 C-70.54897202 1.2896384 -65.07575745 0.70696781 -58.875 0 C-57.78155273 -0.1252002 -56.68810547 -0.25040039 -55.56152344 -0.37939453 C-37.0172158 -2.30508909 -18.52325017 -1.81403647 0 0 Z " fill="#ADC36F" transform="translate(455.9375,111.3125)"/>
<path d="M0 0 C0.03057746 1.4269482 0.052287 2.85408805 0.0703125 4.28125 C0.08336426 5.07595703 0.09641602 5.87066406 0.10986328 6.68945312 C-0.14057597 11.95646876 -2.92630442 15.96804872 -5.8125 20.1875 C-16.32499369 35.60408503 -20.20189054 51.43257973 -20.1875 69.8125 C-20.18741943 70.77792725 -20.18733887 71.74335449 -20.18725586 72.73803711 C-20.13195918 79.65827104 -19.54598494 86.24054761 -18 93 C-17.66412478 94.66615627 -17.33047282 96.33276378 -17 98 C-26.26673498 98.02321303 -35.53345988 98.04096069 -44.80021763 98.05181217 C-49.10355726 98.05702142 -53.40687693 98.06408341 -57.71020508 98.07543945 C-61.86639031 98.08633805 -66.02255639 98.09229158 -70.17875481 98.09487724 C-71.76110065 98.09671895 -73.3434455 98.10031528 -74.92578316 98.10573006 C-77.14919388 98.11303311 -79.37252639 98.11398705 -81.59594727 98.11352539 C-83.49123924 98.11685631 -83.49123924 98.11685631 -85.42481995 98.12025452 C-89.01649659 97.99944512 -92.45509673 97.57529056 -96 97 C-94.03284195 95.03284195 -92.67031902 94.27383787 -90.1875 93.125 C-82.41108522 89.27890316 -78.01113946 84.19367946 -74.88671875 76.125 C-72.22597795 66.74793991 -73.71372679 58.93067632 -78.328125 50.50390625 C-79.98263325 47.78955192 -79.98263325 47.78955192 -82.9375 45.4375 C-85.35285337 42.58299147 -85.29571818 42.03572331 -85.0625 38.4375 C-84.16984926 32.05894714 -82.81579293 25.72888565 -81.46118164 19.43334961 C-81.2883667 18.61874268 -81.11555176 17.80413574 -80.9375 16.96484375 C-80.78152344 16.2493335 -80.62554687 15.53382324 -80.46484375 14.79663086 C-79.75970693 10.55432922 -79.39511204 6.28084555 -79 2 C-71.35758256 1.73559988 -63.71505443 1.47461655 -56.07238197 1.21769714 C-52.52150493 1.09822821 -48.97067158 0.97769224 -45.41992188 0.85449219 C-30.27959103 0.32990206 -15.15198653 -0.18851616 0 0 Z " fill="#D0D9FD" transform="translate(337,318)"/>
<path d="M0 0 C1.55766267 0.00112931 3.11532746 0.00049299 4.67298889 -0.00177002 C8.88750403 -0.00291485 13.10156121 0.02055679 17.31597018 0.04852581 C21.72552066 0.0735781 26.13508233 0.07588448 30.54469299 0.08062744 C38.88856271 0.09304599 47.2322221 0.12585238 55.57599932 0.1660254 C65.07776491 0.21077804 74.5795407 0.23273893 84.08138549 0.25280714 C103.62153904 0.29458609 123.16140436 0.36792439 142.70141602 0.45410156 C142.70141602 11.01410156 142.70141602 21.57410156 142.70141602 32.45410156 C122.07401046 32.54439899 101.44676496 32.61808188 80.81921196 32.66135025 C71.2414632 32.68197457 61.66384598 32.71009271 52.08618164 32.75585938 C43.73818249 32.79573109 35.39027859 32.82153532 27.04218686 32.83045554 C22.62198732 32.83566973 18.20206028 32.8479222 13.78194809 32.87702179 C9.62049455 32.90419623 5.45942546 32.91254251 1.29789162 32.90653229 C-0.22831373 32.90763162 -1.75453208 32.91557366 -3.28066063 32.93092346 C-5.36784394 32.95088447 -7.45358392 32.94602024 -9.540802 32.93511963 C-10.70779192 32.9388068 -11.87478184 32.94249397 -13.07713509 32.94629288 C-18.13632972 32.1733203 -21.21401199 29.59575629 -24.67358398 25.95410156 C-27.07334118 20.78539375 -27.04517806 16.05740553 -26.29858398 10.45410156 C-24.36514938 6.12320805 -21.88065812 3.57673461 -17.70948601 1.28723907 C-12.10393157 -0.64987725 -5.8707621 -0.05957829 0 0 Z " fill="#CFD8FD" transform="translate(101.298583984375,429.5458984375)"/>
<path d="M0 0 C20.49701992 -0.06772373 40.99394924 -0.12298572 61.49105263 -0.15543652 C71.00823599 -0.17090454 80.5253449 -0.19199286 90.04248047 -0.22631836 C98.33774152 -0.25622266 106.63294865 -0.27557547 114.92826211 -0.28226548 C119.32046393 -0.28617599 123.71251148 -0.29536491 128.10466385 -0.31719017 C132.23980858 -0.33757159 136.37473566 -0.34383046 140.50992584 -0.33932304 C142.02644662 -0.3401475 143.54297476 -0.34610338 145.05945206 -0.35761642 C147.13329445 -0.372587 149.20631979 -0.3689377 151.28018188 -0.36076355 C152.43979746 -0.36352893 153.59941303 -0.36629431 154.79416847 -0.36914349 C159.75383549 0.20194977 162.9814033 1.87128474 166.3125 5.5625 C169.91002411 10.75892372 169.56656861 15.81630837 169 22 C167.0665654 26.33089351 164.58207413 28.87736695 160.41090202 31.16686249 C154.80534759 33.10397882 148.57217812 32.51367985 142.70141602 32.45410156 C141.14375335 32.45297225 139.58608856 32.45360857 138.02842712 32.45587158 C133.81391199 32.45701642 129.59985481 32.43354478 125.38544583 32.40557575 C120.97589536 32.38052346 116.56633369 32.37821709 112.15672302 32.37347412 C103.8128533 32.36105557 95.46919392 32.32824919 87.1254167 32.28807616 C77.6236511 32.24332352 68.12187532 32.22136264 58.62003052 32.20129442 C39.07987698 32.15951547 19.54001166 32.08617718 0 32 C0 21.44 0 10.88 0 0 Z " fill="#FDFDFE" transform="translate(36,369)"/>
<path d="M0 0 C1.09272217 0.03758423 1.09272217 0.03758423 2.20751953 0.07592773 C27.46712402 0.93241594 52.73143478 1.4835355 78 2 C77.54585372 10.53316953 76.79644947 18.8646119 75.51269531 27.31738281 C74.53929299 34.30919266 73.98439336 41.34377613 73.375 48.375 C73.23992639 49.90107207 73.10451146 51.42711397 72.96875 52.953125 C72.64191554 56.63507881 72.31964003 60.31741379 72 64 C70.93242966 64.03425331 70.93242966 64.03425331 69.84329224 64.06919861 C63.04997063 64.28754064 56.25671821 64.50793596 49.4635334 64.73049068 C45.97328155 64.84476793 42.48300966 64.95832216 38.99267578 65.07006836 C23.98520593 65.55104743 8.98599295 66.04391269 -6 67 C-6.07245838 61.8751525 -5.8663775 57.0067545 -5.1953125 51.9140625 C-5.02293621 50.56895155 -4.85074307 49.22381712 -4.67871094 47.87866211 C-4.54281555 46.83668167 -4.54281555 46.83668167 -4.4041748 45.77365112 C-2.42522369 30.54277981 -0.98840388 15.3303049 0 0 Z " fill="#D0D9FD" transform="translate(90,246)"/>
<path d="M0 0 C0.12842492 6.17051141 -0.30692748 11.86147155 -1.3125 17.9375 C-2.87827963 28.02650111 -3.81811237 38.1450427 -4.6875 48.3125 C-4.75393707 49.08931122 -4.82037415 49.86612244 -4.88882446 50.66647339 C-5.2669584 55.11035513 -5.63680644 59.55486892 -6 64 C-23.31854832 64.08317535 -40.62263195 63.84011144 -57.9375 63.5 C-60.48241811 63.45162432 -63.02733998 63.40344619 -65.57226562 63.35546875 C-71.71488882 63.23924695 -77.85746175 63.1206235 -84 63 C-83.46190797 57.56632889 -82.91644194 52.13428002 -82.31640625 46.70703125 C-82.19330078 45.57974609 -82.07019531 44.45246094 -81.94335938 43.29101562 C-81.69499346 41.02260695 -81.44506789 38.75436833 -81.19335938 36.48632812 C-79.94520065 25.0071481 -78.97374427 13.50519042 -78 2 C-23.50763269 -0.41989451 -23.50763269 -0.41989451 0 0 Z " fill="#D0D9FD" transform="translate(344,247)"/>
<path d="M0 0 C25.74 0 51.48 0 78 0 C76.25876626 20.024188 74.16035831 40.01668566 72 60 C46.59 60 21.18 60 -5 60 C-5 46.51212553 -5 46.51212553 -4.4140625 41.9140625 C-4.28773438 40.87894531 -4.16140625 39.84382813 -4.03125 38.77734375 C-3.83015625 37.21693359 -3.83015625 37.21693359 -3.625 35.625 C-2.12893195 23.76331757 -1.08407522 11.9248274 0 0 Z " fill="#D0D9FD" transform="translate(178,249)"/>
<path d="M0 0 C2.37041923 12.96833065 4.41215063 25.97319551 6.35546875 39.01171875 C6.66499415 41.08056167 6.97459127 43.14939387 7.28425598 45.21821594 C7.9270256 49.51657804 8.56797055 53.81520758 9.20776367 58.11401367 C10.02701495 63.61663264 10.85241239 69.11831093 11.67931652 74.61978436 C12.3179934 78.87526765 12.9526941 83.13133695 13.58626747 87.38758278 C13.88907402 89.41753859 14.19328695 91.44728514 14.49895287 93.47681236 C14.9242786 96.30384584 15.34405244 99.131651 15.76245117 101.9597168 C15.88864838 102.7904068 16.01484558 103.6210968 16.14486694 104.47695923 C16.76256794 108.69400963 17.13585805 112.72300408 17 117 C16.37738281 116.48953125 16.37738281 116.48953125 15.7421875 115.96875 C6.90159284 109.01464206 -2.75461159 103.60704441 -13.25 99.625 C-13.87455078 99.38652344 -14.49910156 99.14804687 -15.14257812 98.90234375 C-23.97086829 95.71716294 -32.78894654 94.68969843 -42.125 94.375 C-43.08148438 94.33632813 -44.03796875 94.29765625 -45.0234375 94.2578125 C-47.34878199 94.16479872 -49.67414335 94.07896229 -52 94 C-52 93.67 -52 93.34 -52 93 C-48.04 93 -44.08 93 -40 93 C-39.89453857 91.57776123 -39.78907715 90.15552246 -39.68041992 88.69018555 C-38.73333278 75.94126334 -37.7716072 63.19355408 -36.7930603 50.44700623 C-36.30742756 44.102821 -35.83600931 37.75805894 -35.39045715 31.41093445 C-35.1595566 28.15963724 -34.91459226 24.90952054 -34.66543579 21.65957642 C-34.55571949 20.18590491 -34.45243867 18.71173923 -34.35580444 17.2371521 C-34.22269742 15.21812564 -34.06515949 13.20075341 -33.90625 11.18359375 C-33.82697266 10.07556396 -33.74769531 8.96753418 -33.66601562 7.82592773 C-32.85158402 4.37026577 -31.84140996 3.09757075 -29 1 C-26.74511719 0.45410156 -26.74511719 0.45410156 -24.296875 0.390625 C-22.94916016 0.34228516 -22.94916016 0.34228516 -21.57421875 0.29296875 C-20.64222656 0.27878906 -19.71023438 0.26460937 -18.75 0.25 C-17.83347656 0.22035156 -16.91695313 0.19070312 -15.97265625 0.16015625 C-10.6474683 0.00062851 -5.32705424 -0.00246399 0 0 Z " fill="#8A9AE9" transform="translate(450,204)"/>
<path d="M0 0 C11.02565689 -0.35866595 21.83922424 0.07269273 32.8125 1.25 C33.9267334 1.35932861 35.0409668 1.46865723 36.18896484 1.58129883 C42.02782005 2.25857046 46.54606357 2.84012378 51 7 C57.32981177 17.78173043 56.32845144 32.51090126 56.26074219 44.70898438 C56.25000484 46.99896697 56.26072637 49.28816558 56.2734375 51.578125 C56.30641693 80.92039258 56.30641693 80.92039258 49.04296875 89.2421875 C44.37414509 91.93919732 39.60843969 92.41153947 34.3125 93.125 C33.14799316 93.29620361 31.98348633 93.46740723 30.78369141 93.64379883 C23.83155516 94.59289437 16.97938797 95.15163826 9.97265625 95.37890625 C9.21545792 95.4072052 8.45825958 95.43550415 7.67811584 95.46466064 C3.95413743 95.60093194 0.23940866 95.69122526 -3.48706055 95.70166016 C-11.08390112 95.79817143 -11.08390112 95.79817143 -17.77636719 99.05322266 C-20.1280587 101.44454336 -20.1280587 101.44454336 -22.00341797 103.97973633 C-24.59859958 106.60569962 -26.37213936 106.73464017 -30 107 C-31.32 107 -32.64 107 -34 107 C-35.010625 107.226875 -36.02125 107.45375 -37.0625 107.6875 C-40 108 -40 108 -41.671875 106.90625 C-43.57467601 104.17517091 -43.29356792 102.10060556 -43.1875 98.8125 C-43.16042969 97.72582031 -43.13335937 96.63914062 -43.10546875 95.51953125 C-43.07066406 94.68808594 -43.03585937 93.85664063 -43 93 C-44.19625 92.9175 -45.3925 92.835 -46.625 92.75 C-51.92306526 92.07484832 -55.3885211 89.94488833 -58.8125 85.8125 C-62.02040808 78.21482296 -61.12323488 69.03392709 -61.0625 60.9375 C-61.05798828 59.78572266 -61.05347656 58.63394531 -61.04882812 57.44726562 C-61.03714426 54.63145482 -61.02076281 51.81575602 -61 49 C-56.38844274 53.58798883 -56.38844274 53.58798883 -54.26171875 55.84375 C-50.65906159 59.63413867 -47.11341638 62.37531261 -42.50390625 64.859375 C-41.75947266 65.42398438 -41.75947266 65.42398438 -41 66 C-41 66.99 -41 67.98 -41 69 C-39.88625 69.0825 -38.7725 69.165 -37.625 69.25 C-33.19729001 69.79072919 -29.46520464 71.29474622 -25.375 73.015625 C-7.24307319 80.53083151 18.74967029 79.63208268 37 73 C39.33092845 72.32497301 41.66402427 71.65734791 44 71 C44.05006956 65.29322536 44.08603072 59.58658331 44.10986328 53.87963867 C44.11981638 51.94504565 44.13338371 50.01046725 44.15087891 48.07592773 C45.18334254 27.25509284 45.18334254 27.25509284 39 8 C34.82657363 5.25102548 31.14066226 4.53504796 26.2109375 4.12109375 C24.93992187 4.00443359 23.66890625 3.88777344 22.359375 3.76757812 C21.04453125 3.65865234 19.7296875 3.54972656 18.375 3.4375 C15.75673057 3.21677011 13.14027296 2.98410876 10.5234375 2.74609375 C9.36763184 2.64997803 8.21182617 2.5538623 7.02099609 2.45483398 C4.22707924 2.03418851 2.40198573 1.43817146 0 0 Z " fill="#62804E" transform="translate(436,109)"/>
<path d="M0 0 C11.51952071 -0.1928013 23.01187907 0.3253596 34.51904297 0.79956055 C37.86022195 0.93689258 41.20156901 1.06933266 44.54296875 1.20117188 C46.71355347 1.28877058 48.8841268 1.376652 51.0546875 1.46484375 C52.03017548 1.50343002 53.00566345 1.5420163 54.01071167 1.58177185 C62.02405935 1.91609309 69.98919348 2.46594623 78 3 C77.67 14.22 77.34 25.44 77 37 C49.61 37 22.22 37 -6 37 C-4.22278324 24.55948269 -2.45252873 12.29743127 0 0 Z " fill="#D0D9FD" transform="translate(83,317)"/>
<path d="M0 0 C26.07 0 52.14 0 79 0 C78.67 12.21 78.34 24.42 78 37 C74.7 36.34 71.4 35.68 68 35 C65.39209205 34.81724997 62.77773464 34.70847806 60.16357422 34.68115234 C59.4501033 34.67110672 58.73663239 34.6610611 58.00154114 34.65071106 C55.68593015 34.62026939 53.37043249 34.60295475 51.0546875 34.5859375 C49.43229218 34.56719428 47.80990628 34.5476186 46.18753052 34.5272522 C41.94951981 34.47625771 37.71147762 34.43645868 33.47332764 34.39910889 C29.13578715 34.35886251 24.79837395 34.30786507 20.4609375 34.2578125 C11.97404579 34.16144102 3.48709026 34.07691417 -5 34 C-4.54481326 30.58290672 -4.08524253 27.16641569 -3.625 23.75 C-3.49867188 22.80125 -3.37234375 21.8525 -3.2421875 20.875 C-2.29732398 13.88300995 -1.16122432 6.96734591 0 0 Z " fill="#D0D9FD" transform="translate(170,320)"/>
<path d="M0 0 C1.03330948 0.00424484 2.06661896 0.00848969 3.13124084 0.01286316 C6.41198447 0.02957481 9.69210017 0.06721364 12.97265625 0.10546875 C15.20506922 0.12052527 17.43749187 0.13421198 19.66992188 0.14648438 C25.12521206 0.17945365 30.58013927 0.22957788 36.03515625 0.29296875 C36.03515625 0.62296875 36.03515625 0.95296875 36.03515625 1.29296875 C35.47828125 1.42832031 34.92140625 1.56367188 34.34765625 1.703125 C25.41521805 4.22291753 20.08940421 8.84404438 15.53515625 16.91796875 C11.77716089 25.13216627 11.62280222 33.17367358 14.66015625 41.66796875 C18.88017665 50.69209543 24.92546248 55.34145675 34.03515625 59.29296875 C35.69018313 59.67997641 37.35567095 60.03178297 39.03515625 60.29296875 C39.03515625 60.62296875 39.03515625 60.95296875 39.03515625 61.29296875 C32.68560685 61.39516685 26.33627288 61.46476574 19.98608398 61.51269531 C17.83007888 61.53269566 15.67412721 61.55990499 13.51831055 61.59472656 C10.40269713 61.64375728 7.28780654 61.66605389 4.171875 61.68359375 C3.22245529 61.70423889 2.27303558 61.72488403 1.29484558 61.74615479 C-8.21685136 61.74927797 -17.23007061 59.2153609 -24.171875 52.4453125 C-30.72104405 44.58345598 -33.20409419 36.32660836 -32.54296875 26.203125 C-31.21718007 17.23613535 -27.0997436 10.46285334 -20.1875 4.6953125 C-13.35152894 0.3822833 -7.95116552 -0.12411524 0 0 Z " fill="#FA990E" transform="translate(47.96484375,415.70703125)"/>
<path d="M0 0 C6.10140685 -0.12425323 12.20206584 -0.21464741 18.30444336 -0.2746582 C20.37716514 -0.29969303 22.4497996 -0.33373145 24.5222168 -0.37719727 C27.5137291 -0.43833661 30.50406734 -0.46632048 33.49609375 -0.48828125 C34.41208847 -0.51408768 35.32808319 -0.5398941 36.27183533 -0.56648254 C44.71537081 -0.57010516 50.48007426 2.63891898 56.75 8.125 C62.44259889 14.28203003 65.26691596 21.19747167 65.5625 29.5625 C65.18823533 38.08966532 62.56543544 45.20357147 56.69921875 51.46875 C48.56752418 58.79662189 40.31353672 60.31368198 29.69140625 60.1953125 C28.24132423 60.19106766 28.24132423 60.19106766 26.76194763 60.18673706 C23.69533548 60.17560407 20.62902285 60.15051224 17.5625 60.125 C15.47461361 60.11496131 13.38672262 60.10583701 11.29882812 60.09765625 C6.19910456 60.07568727 1.09960295 60.04120507 -4 60 C-2.01907255 59.00605825 -0.03858188 58.01825544 1.96484375 57.0703125 C10.5146345 52.97318505 15.6337128 48.04351399 19.12109375 39.13671875 C21.26992745 31.46777004 21.05185263 23.16939574 17.3203125 16.05859375 C12.7356861 8.91037449 7.67324836 4.61912848 0 1 C0 0.67 0 0.34 0 0 Z " fill="#617F4D" transform="translate(199,355)"/>
<path d="M0 0 C8.33182738 4.01162059 11.75285104 10.86010876 14.99609375 19.10546875 C17.06863351 25.08115732 17.10945273 30.76119442 17 37 C15.68 37 14.36 37 13 37 C12.76925781 36.23816406 12.53851563 35.47632813 12.30078125 34.69140625 C7.95237222 20.92129874 7.95237222 20.92129874 -2 11 C-5 10 -5 10 -8 11 C-13.84955063 15.4380919 -16.01304374 22.1991906 -18 29 C-18.3609375 30.21945313 -18.721875 31.43890625 -19.09375 32.6953125 C-20.2920753 37.60160858 -20.29349696 42.40997652 -20.25 47.4375 C-20.25773438 48.32759766 -20.26546875 49.21769531 -20.2734375 50.13476562 C-20.24321007 60.48010411 -18.3752009 71.9997704 -11.375 80 C-10.59125 80.66 -9.8075 81.32 -9 82 C-8.34 82.66 -7.68 83.32 -7 84 C-11.59482947 83.77586198 -14.72403609 82.45241566 -18.12890625 79.328125 C-20.66797968 76.16886035 -22.48329496 72.79456544 -24.3125 69.1875 C-24.81885986 68.19254517 -24.81885986 68.19254517 -25.33544922 67.17749023 C-31.8083998 53.70281744 -32.4480345 35.84432563 -28.3125 21.5625 C-23.23321763 8.0944377 -15.18552899 -1.5271566 0 0 Z " fill="#505050" transform="translate(239,34)"/>
<path d="M0 0 C7.58413099 4.15008324 11.19117233 11.67020604 13.65234375 19.671875 C15.00511883 25.20955078 15.07344426 30.5645986 14.77734375 36.234375 C13.45734375 36.234375 12.13734375 36.234375 10.77734375 36.234375 C10.48601562 35.25597656 10.1946875 34.27757812 9.89453125 33.26953125 C5.95037076 20.05975067 5.95037076 20.05975067 -3.22265625 10.234375 C-6.90073769 9.75462525 -8.62950987 9.84260548 -11.75390625 11.90625 C-14.4711333 14.46869829 -15.50533789 16.3985678 -16.84765625 19.859375 C-17.42386719 21.30183594 -17.42386719 21.30183594 -18.01171875 22.7734375 C-18.41132813 23.91554688 -18.8109375 25.05765625 -19.22265625 26.234375 C-19.48667236 26.98267578 -19.75068848 27.73097656 -20.02270508 28.50195312 C-22.02889832 34.58674977 -22.73418919 40.09246657 -22.66015625 46.484375 C-22.6540332 47.39461426 -22.64791016 48.30485352 -22.64160156 49.24267578 C-22.37560108 60.8300659 -19.82958601 72.65016071 -11.47265625 81.171875 C-10.73015625 81.8525 -9.98765625 82.533125 -9.22265625 83.234375 C-14.50374774 82.85715418 -17.74794579 81.13217197 -21.22265625 77.234375 C-31.99411853 62.84563061 -34.14902923 44.06785655 -31.7265625 26.671875 C-29.14260597 15.46013141 -24.69822915 7.0305256 -15.22265625 0.234375 C-10.22493438 -1.43153229 -5.03693334 -1.73504207 0 0 Z " fill="#505050" transform="translate(170.22265625,34.765625)"/>
<path d="M0 0 C6.96683545 3.45259102 10.71452979 9.95764419 13.390625 17 C15.48731693 23.7752607 15.38986797 30.34754874 15.015625 37.375 C14.025625 37.045 13.035625 36.715 12.015625 36.375 C10.95544118 33.85372251 10.05475589 31.4029134 9.203125 28.8125 C6.57633822 21.3147459 3.82707621 14.91596748 -2.984375 10.375 C-6.73126374 9.80482128 -8.39312297 9.97121812 -11.546875 12.125 C-19.93053891 21.64451515 -21.32953046 35.80611591 -21.234375 47.875 C-21.24210937 48.85597656 -21.24984375 49.83695313 -21.2578125 50.84765625 C-21.23110742 60.8754137 -19.61095045 69.88176822 -13.984375 78.375 C-12.03580946 80.15851058 -10.35790373 81.16063646 -7.984375 82.375 C-9.609375 83.125 -9.609375 83.125 -11.984375 83.375 C-21.43576164 78.44384175 -25.64354473 70.18236158 -28.984375 60.375 C-33.43861537 45.29352308 -33.37914129 28.14469509 -26.609375 13.8125 C-20.79523133 3.37818859 -12.52248582 -3.94409002 0 0 Z " fill="#504F50" transform="translate(310.984375,34.625)"/>
<path d="M0 0 C7.38334981 4.04021454 10.98266054 11.39833651 13.65234375 19.109375 C15.19557538 24.77691571 15.04773073 30.40603343 14.77734375 36.234375 C12.89453125 36.07421875 12.89453125 36.07421875 10.77734375 35.234375 C9.72265625 32.86328125 9.72265625 32.86328125 8.90234375 29.796875 C6.63782456 22.32574475 3.64558567 14.54886748 -3.22265625 10.234375 C-6.17986253 9.56757132 -6.17986253 9.56757132 -9.22265625 10.234375 C-16.61214858 15.86446439 -18.66372449 24.10819359 -20.609375 32.79296875 C-21.22265625 35.234375 -21.22265625 35.234375 -22.22265625 36.234375 C-23.00423181 50.84382593 -23.11920972 68.24941339 -12.75390625 79.8828125 C-11.05535848 81.44321506 -11.05535848 81.44321506 -8.22265625 83.234375 C-13.69083162 83.09767062 -16.39012095 80.78821665 -20.29296875 77.31640625 C-24.81406297 72.43838354 -27.07954252 67.49731071 -28.91015625 61.234375 C-29.12220703 60.54859375 -29.33425781 59.8628125 -29.55273438 59.15625 C-34.18578947 43.83939907 -33.58070145 27.8923696 -26.8671875 13.28515625 C-21.11031202 2.95982194 -12.30786565 -4.23961629 0 0 Z " fill="#505050" transform="translate(382.22265625,34.765625)"/>
<path d="M0 0 C6.67265031 4.43794195 10.91941224 13.24926258 12.8203125 20.83984375 C13.32782984 24.0556582 13.34537208 27.12066374 13.3125 30.375 C13.30347656 31.53644531 13.29445312 32.69789062 13.28515625 33.89453125 C13.27355469 34.77496094 13.26195312 35.65539062 13.25 36.5625 C12.26 36.2325 11.27 35.9025 10.25 35.5625 C9.18734609 33.22882866 8.29015465 30.97127108 7.4375 28.5625 C4.71611181 21.32352143 1.89217062 13.99061374 -4.75 9.5625 C-7.6649255 8.9786804 -7.6649255 8.9786804 -10.75 9.5625 C-18.41932737 15.40579704 -20.28212809 23.87805067 -22.13671875 32.90234375 C-22.75 35.5625 -22.75 35.5625 -23.75 36.5625 C-24.71343933 50.74559047 -23.63307418 65.27417848 -15.75 77.5625 C-13.81544906 79.22545143 -12.00819914 80.33075502 -9.75 81.5625 C-11.375 82.3125 -11.375 82.3125 -13.75 82.5625 C-22.87768691 77.80022857 -27.96330408 69.37479995 -31.15869141 59.77001953 C-35.41450614 43.88187882 -35.23934421 25.64547611 -27.36328125 10.98046875 C-21.28178167 1.35541824 -11.59318153 -5.69308021 0 0 Z " fill="#515050" transform="translate(100.75,35.4375)"/>
<path d="M0 0 C11.02565689 -0.35866595 21.83922424 0.07269273 32.8125 1.25 C33.9267334 1.35932861 35.0409668 1.46865723 36.18896484 1.58129883 C42.02782005 2.25857046 46.54606357 2.84012378 51 7 C57.32981177 17.78173043 56.32845144 32.51090126 56.26074219 44.70898438 C56.25000484 46.99896697 56.26072637 49.28816558 56.2734375 51.578125 C56.30654028 81.03014218 56.30654028 81.03014218 49 89.25 C43.07544125 92.70599261 35.78379588 93.36669167 29 93 C29 92.67 29 92.34 29 92 C29.61488281 91.81824219 30.22976563 91.63648438 30.86328125 91.44921875 C31.67152344 91.19785156 32.47976563 90.94648438 33.3125 90.6875 C34.11300781 90.44386719 34.91351563 90.20023437 35.73828125 89.94921875 C38.1573226 88.93397342 39.37071422 88.03785285 41 86 C43.68750692 78.23609112 44.1574177 70.56667996 44.16796875 62.4375 C44.17129715 61.5285498 44.17462555 60.61959961 44.17805481 59.68310547 C44.18309912 57.76351422 44.18546391 55.84391427 44.18530273 53.92431641 C44.18747248 51.03663007 44.20560864 48.14933681 44.22460938 45.26171875 C44.96173143 25.87613938 44.96173143 25.87613938 39 8 C34.82657363 5.25102548 31.14066226 4.53504796 26.2109375 4.12109375 C24.93992187 4.00443359 23.66890625 3.88777344 22.359375 3.76757812 C21.04453125 3.65865234 19.7296875 3.54972656 18.375 3.4375 C15.75673057 3.21677011 13.14027296 2.98410876 10.5234375 2.74609375 C9.36763184 2.64997803 8.21182617 2.5538623 7.02099609 2.45483398 C4.22707924 2.03418851 2.40198573 1.43817146 0 0 Z " fill="#3E5F2B" transform="translate(436,109)"/>
<path d="M0 0 C4.15178253 6.22767379 3.9857471 14.91091401 4.171875 22.265625 C4.19757568 23.16289307 4.22327637 24.06016113 4.24975586 24.98461914 C4.29113822 26.76728094 4.31066853 28.5506022 4.30688477 30.33374023 C4.35948175 32.65643197 4.44358835 34.74370114 5 37 C7.29479505 39.01814704 7.29479505 39.01814704 10 40 C14.34026796 44.94308296 15.22345519 47.40807175 15 54 C14.56880859 55.11955078 14.56880859 55.11955078 14.12890625 56.26171875 C13.91679259 60.76752708 16.95017632 63.24075883 19.8125 66.5 C26.61197837 74.4027309 26.61197837 74.4027309 28 79 C23.735676 77.71585698 21.1326236 75.50442605 17.88647461 72.60766602 C11.24456277 66.72733486 6.9223068 63.96691955 -2.2421875 64.11328125 C-5.2115651 63.99130965 -6.39652783 63.58167099 -8.6875 61.75 C-12.42069484 57.31052505 -13.48318999 53.87800035 -13.31640625 47.99609375 C-12.7761255 44.58765592 -11.24417744 42.54744467 -9 40 C-6.35546875 38.8359375 -6.35546875 38.8359375 -4 38 C-4.02320313 36.88625 -4.04640625 35.7725 -4.0703125 34.625 C-4.45969882 7.45781568 -4.45969882 7.45781568 0 0 Z " fill="#545351" transform="translate(405,337)"/>
<path d="M0 0 C5.1010537 1.30796249 8.6275532 3.71473301 12.75390625 6.85546875 C14.95170268 8.21214034 14.95170268 8.21214034 17.49609375 7.86328125 C20.23401231 6.91931869 22.1674654 5.7083352 24.5 4 C27.6855367 1.66693087 30.07338693 0.55304409 34 0 C33.06758496 1.91914553 32.12885525 3.83522386 31.1875 5.75 C30.66542969 6.81734375 30.14335937 7.8846875 29.60546875 8.984375 C28.2383308 11.55233242 26.82284537 13.74470783 25 16 C26.95001025 20.07987581 29.35405482 23.8359963 31.7578125 27.66015625 C33 30 33 30 33 33 C27.6144328 32.33642118 24.62619741 29.62108073 20.5 26.30078125 C18.07752707 24.69256452 18.07752707 24.69256452 15.5078125 25.6015625 C12.92752858 27.04041241 10.38354303 28.50137307 7.875 30.0625 C5.19748052 31.72679402 3.00027598 32.99990801 0 34 C0.69420651 28.53560308 3.50028429 25.04010875 6.6015625 20.62109375 C8.18402638 18.19602817 8.18402638 18.19602817 7.8984375 15.97265625 C6.77771218 13.51193327 5.44826248 11.28379853 4 9 C2.09729422 5.99957934 0.65013313 3.51071893 0 0 Z " fill="#F9AE44" transform="translate(292,193)"/>
<path d="M0 0 C1.94937156 -0.00322975 3.8987429 -0.00659496 5.84811401 -0.01008606 C9.90363119 -0.01601496 13.95912725 -0.01793246 18.01464844 -0.01733398 C22.11397724 -0.0172528 26.21319411 -0.02419352 30.3125 -0.0378418 C74.46524978 -0.18290585 74.46524978 -0.18290585 96.0546875 2.16796875 C96.0546875 2.49796875 96.0546875 2.82796875 96.0546875 3.16796875 C73.02766565 4.81319285 50.13083048 5.46315082 27.04858398 5.36358643 C23.87737781 5.35271942 20.70621379 5.35316569 17.53499222 5.35359001 C2.41776655 5.3531165 -12.68761463 5.23850575 -27.796875 4.71875 C-29.50077896 4.66100655 -29.50077896 4.66100655 -31.23910522 4.60209656 C-36.54340458 4.39507881 -41.71020403 4.05727499 -46.9453125 3.16796875 C-46.9453125 2.83796875 -46.9453125 2.50796875 -46.9453125 2.16796875 C-41.92013736 1.2066646 -36.97751362 0.85501003 -31.87939453 0.6159668 C-31.00352755 0.57392718 -30.12766056 0.53188757 -29.22525215 0.48857403 C-19.48429467 0.05496159 -9.7490381 0.00389658 0 0 Z " fill="#99A8EC" transform="translate(94.9453125,375.83203125)"/>
<path d="M0 0 C2.09540824 -0.00067681 4.19081639 -0.00164994 6.28622437 -0.00289917 C10.63743857 -0.0043578 14.98863199 -0.00228113 19.33984375 0.00244141 C24.85707563 0.00814471 30.37425891 0.00484403 35.89148903 -0.00113106 C40.20545809 -0.00478066 44.51941603 -0.00357823 48.83338547 -0.00100327 C50.86551291 -0.00034647 52.89764144 -0.00111755 54.92976761 -0.00348282 C65.16392457 -0.01278973 75.38469025 0.08481464 85.61083984 0.51611328 C86.46185083 0.54645597 87.31286182 0.57679867 88.18966103 0.60806084 C94.09965346 0.89652846 94.09965346 0.89652846 96.3359375 3.1328125 C81.54245817 4.10284272 66.80240353 4.28052707 51.98046875 4.265625 C49.57972707 4.26630077 47.17898546 4.26727306 44.77824402 4.26852417 C39.78029724 4.26998745 34.78236849 4.2678905 29.78442383 4.26318359 C23.42035651 4.25747783 17.0563313 4.26077946 10.69226551 4.26675606 C5.74622792 4.27039094 0.80020012 4.26920986 -4.14583778 4.26662827 C-6.49108193 4.26596756 -8.836327 4.26675699 -11.18157005 4.26910782 C-23.71721 4.27892355 -36.16455411 4.15313601 -48.6640625 3.1328125 C-45.76389073 1.49419551 -43.57782538 0.85761167 -40.25772095 0.72341919 C-38.96396073 0.6663168 -38.96396073 0.6663168 -37.64406395 0.60806084 C-36.71560976 0.57771814 -35.78715557 0.54737545 -34.83056641 0.51611328 C-33.85487513 0.47851458 -32.87918385 0.44091587 -31.87392616 0.40217781 C-21.25033672 0.02520644 -10.62901988 -0.0124004 0 0 Z " fill="#8F9FEB" transform="translate(133.6640625,448.8671875)"/>
<path d="M0 0 C0.66 0.33 1.32 0.66 2 1 C-4.54046699 12.89547434 -12.13530175 22.68439244 -22 32 C-22.9075 32.86625 -23.815 33.7325 -24.75 34.625 C-27 36 -27 36 -29.4375 36.25 C-35.49395603 33.2956312 -38.98678768 25.79463907 -42 20 C-42 19.34 -42 18.68 -42 18 C-37.1725201 19.41292095 -33.2837641 21.42974154 -29 24 C-28.73058594 23.40703125 -28.46117188 22.8140625 -28.18359375 22.203125 C-23.02711989 12.60493604 -9.89552147 3.97995699 0 0 Z " fill="#B6361F" transform="translate(156,190)"/>
<path d="M0 0 C2.3091686 -0.00067623 4.61833713 -0.00164889 6.92750549 -0.00289917 C11.72340587 -0.00435909 16.51928739 -0.00227585 21.31518555 0.00244141 C27.42255609 0.0081604 33.52988288 0.00483509 39.63725185 -0.00113106 C44.38937198 -0.0047638 49.14148192 -0.00358605 53.89360237 -0.00100327 C56.14477608 -0.00034267 58.39595076 -0.0011316 60.64712334 -0.00348282 C72.53856188 -0.01319005 84.3392423 0.09367525 96.19140625 1.1328125 C96.19140625 1.4628125 96.19140625 1.7928125 96.19140625 2.1328125 C82.23163911 5.22318363 67.25238598 4.28099584 53.046875 4.265625 C50.82456959 4.26630056 48.60226426 4.26727268 46.37995911 4.26852417 C41.74312632 4.26999019 37.10631293 4.26788269 32.46948242 4.26318359 C26.57631726 4.25749707 20.68319777 4.26076554 14.79003429 4.26675606 C10.20591397 4.27040002 5.62180416 4.26920545 1.03768349 4.26662827 C-1.13286024 4.26596904 -3.30340498 4.26675157 -5.47394753 4.26910782 C-15.68671813 4.2777624 -25.88948811 4.23432443 -36.0925293 3.74951172 C-37.20719558 3.70399768 -37.20719558 3.70399768 -38.34438038 3.65756416 C-41.97742562 3.45425738 -43.70924609 3.19904427 -46.80859375 1.1328125 C-31.19503001 0.28451542 -15.63490893 -0.01645001 0 0 Z " fill="#8F9FEB" transform="translate(135.80859375,437.8671875)"/>
<path d="M0 0 C5.85131438 0.00572986 11.70258319 0.00238306 17.55389595 -0.00357246 C22.12855361 -0.00721214 26.70320073 -0.00602452 31.27785873 -0.00344467 C33.43444703 -0.00278655 35.59103634 -0.0035639 37.74762344 -0.00592422 C50.49225073 -0.01683305 63.15376306 0.25732506 75.87011719 1.13037109 C72.82028893 3.16358993 72.06663002 3.40069075 68.60693359 3.54003906 C67.70993744 3.57815704 66.81294128 3.61627502 65.88876343 3.6555481 C64.88487579 3.68591156 63.88098816 3.71627502 62.84667969 3.74755859 C61.76440094 3.78509247 60.68212219 3.82262634 59.56704712 3.86129761 C43.36553186 4.35049233 27.15099902 4.28025166 10.94384766 4.26074219 C6.21478738 4.25507015 1.48578363 4.25842958 -3.24327469 4.26416397 C-20.18526492 4.28178959 -37.12910093 4.27292759 -54.06580734 3.80343246 C-56.03182915 3.74918627 -57.99804852 3.70225394 -59.96426392 3.6555481 C-61.12541718 3.61743011 -62.28657043 3.57931213 -63.48291016 3.54003906 C-64.4846225 3.50941376 -65.48633484 3.47878845 -66.5184021 3.44723511 C-69.15833462 3.12691889 -70.85695072 2.47502746 -73.12988281 1.13037109 C-48.76476642 -0.12501744 -24.39024325 -0.02421804 0 0 Z " fill="#91A1EB" transform="translate(119.1298828125,387.86962890625)"/>
<path d="M0 0 C-3.96739819 13.60250809 -16.30753605 27.20502404 -28 35 C-30.3125 35.125 -30.3125 35.125 -33 34 C-36.75062473 30.01737787 -43 22.63201539 -43 17 C-40.24317931 18.02396197 -37.90288813 19.06395172 -35.4375 20.6875 C-33.15873878 22.16297181 -33.15873878 22.16297181 -30.9375 22 C-28.79327528 21.06255159 -28.79327528 21.06255159 -27.1953125 18.7109375 C-21.63860772 11.84909921 -9.23380397 0 0 0 Z " fill="#B5351D" transform="translate(235,262)"/>
<path d="M0 0 C0 0.66 0 1.32 0 2 C-10.82469651 4.44656346 -21.15222806 5.48021146 -32.24609375 5.39111328 C-34.6307854 5.37496081 -37.01379502 5.39110646 -39.3984375 5.41015625 C-49.00359641 5.42130344 -57.67136717 4.48248322 -67 2 C-54.45045026 -10.54954974 -15.58600148 -3.18934013 0 0 Z " fill="#FBFCF8" transform="translate(461,132)"/>
<path d="M0 0 C2.12605709 -0.00965512 4.2511234 -0.04075726 6.37695312 -0.07226562 C16.23728457 -0.14576727 25.40789677 1.0979873 35.02539062 3.24023438 C35.02539062 3.90023437 35.02539062 4.56023437 35.02539062 5.24023438 C14.45791896 9.22103534 -10.68244657 12.00428864 -30.97460938 5.24023438 C-30.97460938 4.58023438 -30.97460938 3.92023438 -30.97460938 3.24023438 C-20.88990219 -0.0482571 -10.52584424 0.02873297 0 0 Z " fill="#FBFCF9" transform="translate(426.974609375,172.759765625)"/>
<path d="M0 0 C1.23806396 0.00008057 2.47612793 0.00016113 3.75170898 0.00024414 C13.33665808 0.05998892 23.19140731 0.12630244 32.375 3.1875 C32.375 3.8475 32.375 4.5075 32.375 5.1875 C22.43897076 8.12415855 13.161437 8.65741281 2.87304688 8.57861328 C0.37835024 8.56252161 -2.11472702 8.57854956 -4.609375 8.59765625 C-14.05289719 8.60818649 -22.51115767 7.88115582 -31.625 5.1875 C-31.295 4.5275 -30.965 3.8675 -30.625 3.1875 C-20.5683651 0.13459298 -10.43409156 -0.00630459 0 0 Z " fill="#FBFCF9" transform="translate(427.625,150.8125)"/>
<path d="M0 0 C6.45574649 9.68361973 4.20272214 25.80523298 4 37 C1.36 37 -1.28 37 -4 37 C-4.65141138 7.75886688 -4.65141138 7.75886688 0 0 Z " fill="#FAB047" transform="translate(405,337)"/>
<path d="M0 0 C10.89 0 21.78 0 33 0 C34.24692967 4.98771867 35.33279081 9.5581848 36.0703125 14.58203125 C36.24433594 15.76087891 36.41835938 16.93972656 36.59765625 18.15429688 C36.77167969 19.36150391 36.94570313 20.56871094 37.125 21.8125 C37.30675781 23.03904297 37.48851562 24.26558594 37.67578125 25.52929688 C39 34.58476269 39 34.58476269 39 38 C36.03 38 33.06 38 30 38 C29.6116836 25.55230209 30.83397166 13.38905116 32 1 C21.44 1 10.88 1 0 1 C0 0.67 0 0.34 0 0 Z " fill="#879AE7" transform="translate(397,71)"/>
<path d="M0 0 C3.43359286 3.35458984 6.62780464 6.80135298 9.6875 10.5 C10.45449219 11.4178125 11.22148437 12.335625 12.01171875 13.28125 C13.87125719 15.82395875 14.99465121 18.03233939 16 21 C10.93091809 19.43426041 7.39028397 16.32515704 3.375 13 C2.05028703 11.91567896 0.72479554 10.83230816 -0.6015625 9.75 C-1.18244629 9.27046875 -1.76333008 8.7909375 -2.36181641 8.296875 C-3.84903749 7.11951011 -5.42173094 6.05217937 -7 5 C-6.21625 4.54625 -5.4325 4.0925 -4.625 3.625 C-1.96301969 2.11571258 -1.96301969 2.11571258 0 0 Z " fill="#F7AF47" transform="translate(417,395)"/>
<path d="M0 0 C0.33 1.32 0.66 2.64 1 4 C1.86625 3.9175 2.7325 3.835 3.625 3.75 C7.75988007 4.05628741 9.74642697 5.52108722 13 8 C12.0625 9.9375 12.0625 9.9375 10 12 C7.0141919 12.66174825 4.05138131 12.87205948 1 13 C0.67 13.99 0.34 14.98 0 16 C0 10.72 0 5.44 0 0 Z " fill="#6A615E" transform="translate(334,379)"/>
<path d="M0 0 C4.95 0 9.9 0 15 0 C13.68 0.33 12.36 0.66 11 1 C10.97421875 1.62648438 10.9484375 2.25296875 10.921875 2.8984375 C10.86515625 3.71570313 10.8084375 4.53296875 10.75 5.375 C10.68039062 6.59316406 10.68039062 6.59316406 10.609375 7.8359375 C10 10 10 10 7.953125 11.2890625 C6.98632812 11.64097656 6.98632812 11.64097656 6 12 C3.29727467 9.12835434 2.05208163 7.69008159 1.75 3.6875 C1.8325 2.800625 1.915 1.91375 2 1 C1.34 0.67 0.68 0.34 0 0 Z " fill="#686361" transform="translate(399,316)"/>
<path d="M0 0 C-6.95869565 8.51304348 -6.95869565 8.51304348 -11 11 C-13.8125 10.75 -13.8125 10.75 -16 10 C-16 6.42656151 -15.42341561 5.86614341 -13.0625 3.3125 C-8.95767062 -0.69139095 -5.49586746 -0.78512392 0 0 Z " fill="#426231" transform="translate(421,205)"/>
<path d="M0 0 C0.680625 0.12375 1.36125 0.2475 2.0625 0.375 C2.41538435 4.1685068 2.34643415 5.93441253 0.25 9.1875 C-1.9375 11.375 -1.9375 11.375 -4.9375 12.375 C-6.5875 10.395 -8.2375 8.415 -9.9375 6.375 C-3.86310175 0.49316193 -3.86310175 0.49316193 0 0 Z " fill="#5F5A58" transform="translate(361.9375,428.625)"/>
<path d="M0 0 C4.4571874 0.26218749 6.51522698 0.57711289 9.9375 3.5625 C10.618125 4.366875 11.29875 5.17125 12 6 C10.02 8.97 10.02 8.97 8 12 C4.19374018 10.50468364 2.22059499 8.41019944 0 5 C-0.25 2.1875 -0.25 2.1875 0 0 Z " fill="#5E5C5A" transform="translate(447,429)"/>
<path d="M0 0 C3.06434726 0.15714601 4.55269031 0.58353926 6.8125 2.6875 C8.3082321 5.60024146 8.22022756 7.76999584 8 11 C4.16967201 10.70535939 1.64765087 10.46954688 -1.5 8.1875 C-3 6 -3 6 -2.875 3.875 C-2 2 -2 2 0 0 Z " fill="#5B5755" transform="translate(356,335)"/>
<path d="M0 0 C1 1 1 1 1.09765625 2.84765625 C1.04882812 5.92382812 1.04882812 5.92382812 1 9 C-2.1875 9.3125 -2.1875 9.3125 -6 9 C-8.9375 6.5 -8.9375 6.5 -11 4 C-7.28611303 0.50457697 -5.11924147 -0.58173199 0 0 Z " fill="#5C5B5A" transform="translate(476,383)"/>
<path d="M0 0 C3.875 1.75 3.875 1.75 5 4 C5.13415472 6.6723621 5.04318541 9.32250488 5 12 C2.36 12 -0.28 12 -3 12 C-3.08131463 10.56344146 -3.13933559 9.1255517 -3.1875 7.6875 C-3.22230469 6.88699219 -3.25710938 6.08648437 -3.29296875 5.26171875 C-2.93801608 2.52148416 -2.10633718 1.70828921 0 0 Z " fill="#585756" transform="translate(405,447)"/>
<path d="M0 0 C0.66 0 1.32 0 2 0 C3.38938077 1.96147874 4.7260411 3.96166576 6 6 C2.50912907 10.0042343 0.35048061 11.62671065 -5 12 C-5.34934248 9.06552319 -5.51495218 6.85632498 -3.95703125 4.265625 C-2.625 2.625 -2.625 2.625 0 0 Z " fill="#5A5655" transform="translate(453,334)"/>
<path d="M0 0 C0.33 0 0.66 0 1 0 C1 13.53 1 27.06 1 41 C0.67 41 0.34 41 0 41 C-0.02505615 40.1121582 -0.0501123 39.22431641 -0.07592773 38.30957031 C-0.17121797 35.00703963 -0.27044207 31.70467541 -0.37231445 28.40234375 C-0.41555318 26.97465612 -0.45723585 25.54692046 -0.49731445 24.11914062 C-0.55528602 22.06365504 -0.61890175 20.00840872 -0.68359375 17.953125 C-0.72025146 16.71723633 -0.75690918 15.48134766 -0.79467773 14.20800781 C-0.88800853 11.13977509 -0.88800853 11.13977509 -1.57836914 8.79980469 C-2.3073276 5.68811867 -0.96746175 2.95929475 0 0 Z " fill="#9EADEF" transform="translate(268,181)"/>
<path d="M0 0 C1.86785156 0.01353516 1.86785156 0.01353516 3.7734375 0.02734375 C5.18496094 0.04474609 5.18496094 0.04474609 6.625 0.0625 C6.625 0.7225 6.625 1.3825 6.625 2.0625 C7.615 2.3925 8.605 2.7225 9.625 3.0625 C7.10409222 3.0897367 4.58348543 3.10945207 2.0625 3.125 C1.00579102 3.13756836 1.00579102 3.13756836 -0.07226562 3.15039062 C-4.61524798 3.17132603 -8.89284892 2.81050682 -13.375 2.0625 C-13.375 1.7325 -13.375 1.4025 -13.375 1.0625 C-8.85684719 0.17972245 -4.59987306 -0.04339503 0 0 Z " fill="#A8B5EF" transform="translate(61.375,376.9375)"/>
<path d="M0 0 C0.33 0 0.66 0 1 0 C1 12.54 1 25.08 1 38 C0.67 38 0.34 38 0 38 C-0.02505615 37.20303711 -0.0501123 36.40607422 -0.07592773 35.58496094 C-0.19198789 31.97314778 -0.31466931 28.36158898 -0.4375 24.75 C-0.49647461 22.86861328 -0.49647461 22.86861328 -0.55664062 20.94921875 C-0.59853516 19.74394531 -0.64042969 18.53867188 -0.68359375 17.296875 C-0.72025146 16.18666992 -0.75690918 15.07646484 -0.79467773 13.93261719 C-0.89924432 11.10164044 -0.89924432 11.10164044 -1.57836914 8.84082031 C-2.29705556 5.70306955 -0.97543474 2.98368273 0 0 Z " fill="#9FAEF0" transform="translate(180,181)"/>
<path d="M0 0 C-0.33 0.99 -0.66 1.98 -1 3 C-6.94 2.67 -12.88 2.34 -19 2 C-19 1.67 -19 1.34 -19 1 C-12.63849395 0.34513908 -6.39628979 -0.12068471 0 0 Z " fill="#98A7EE" transform="translate(77,242)"/>
</svg>
